<svg xmlns="http://www.w3.org/2000/svg" viewBox="0 0 46.6276 45" fill="none">
  <path d="M23.3144 0C30.9732 0 37.3183 3.23205 42.3475 9.70991C45.1987 13.8447 46.6276 18.1509 46.6276 22.6296C46.6276 30.4886 43.0888 36.8627 36.01 41.7669C33.3419 43.3787 31.447 44.1925 30.3459 44.1925L29.8108 43.5131V37.721C29.7494 37.0194 29.3294 36.1685 28.5573 35.161C31.776 34.6308 34.1216 33.7355 35.5824 32.4665C37.5245 30.5489 38.495 28.0333 38.495 24.9283V23.3091C38.3503 22.0254 37.7537 20.5924 36.7064 19.0028C36.5693 19.0028 36.4311 18.861 36.2787 18.5848C36.5616 17.7265 36.7064 16.9582 36.7064 16.2862V16.0248C36.5002 13.868 36.1789 12.7927 35.7436 12.7927C34.2379 12.7927 32.3034 13.5537 29.9413 15.084C27.9849 14.6363 26.6086 14.4045 25.7982 14.4045H22.7792C22.2978 14.4045 20.9599 14.6363 18.7666 15.084C16.5273 13.5537 14.5545 12.7927 12.835 12.7927C12.4457 13.36 12.1704 14.4797 12.0092 16.1592V16.4428C12.2768 17.7858 12.4062 18.4949 12.4062 18.5848C10.9466 20.4802 10.2118 22.4963 10.2118 24.6457C10.2118 29.0271 11.871 32.0422 15.1883 33.6698C16.2433 34.2963 17.7566 34.7525 19.7284 35.0287H20.133V35.2901C19.6132 35.8647 19.1548 36.7982 18.7644 38.1115C17.9617 38.3877 17.0449 38.5296 16.013 38.5296H15.8529C14.515 38.5296 13.1387 37.4099 11.7328 35.1631C10.7316 34.3419 9.76878 33.9386 8.82787 33.9386L8.13261 34.2223C8.13261 34.4689 8.82787 35.1853 10.2118 36.3643C10.5255 36.7146 11.167 37.8343 12.1386 39.7307C13.1398 40.7234 14.7069 41.2155 16.8399 41.2155C17.4134 41.133 18.0549 41.0885 18.7666 41.0885L18.9037 41.3499V43.91C18.4376 44.4476 18.2084 44.8127 18.2084 45C12.1923 43.3501 7.73673 40.5297 4.83943 36.5135C1.61314 32.3332 0 27.7497 0 22.764C0 14.704 3.81408 8.14997 11.4433 3.10505C15.4175 1.02973 19.3698 0 23.3144 0Z" fill="#7FA6C4"/>
</svg>
