<svg width="95" height="97" viewBox="0 0 95 97" fill="none" xmlns="http://www.w3.org/2000/svg">
<path fill-rule="evenodd" clip-rule="evenodd" d="M75.2971 82.1097C73.5446 82.1097 72.1196 83.5647 72.1196 85.3541C72.1196 87.1436 73.5446 88.5986 75.2971 88.5986C77.0496 88.5986 78.4746 87.1455 78.4746 85.3541C78.4746 83.5628 77.0496 82.1097 75.2971 82.1097ZM73.7648 79.1743V63.7951H66.0288C65.1823 63.7951 64.4966 63.095 64.4966 62.2306C64.4966 61.3662 65.1823 60.6661 66.0288 60.6661H75.2971C76.1436 60.6661 76.8293 61.3681 76.8293 62.2306V79.1743C79.5338 79.8725 81.5391 82.3757 81.5391 85.3541C81.5391 88.8723 78.7427 91.7276 75.2971 91.7276C71.8514 91.7276 69.055 88.8723 69.055 85.3541C69.055 82.3757 71.0604 79.8725 73.7648 79.1743ZM26.8279 87.9493C28.1878 85.8548 28.9827 83.3418 28.9827 80.6391C28.9827 73.3308 23.1811 67.4072 16.0236 67.4072C8.86603 67.4072 3.06452 73.3308 3.06452 80.6391C3.06452 83.3418 3.85746 85.8548 5.21925 87.9493C6.34355 85.1058 8.51361 82.8059 11.241 81.5504C10.0861 80.3262 9.37359 78.6658 9.37359 76.8432C9.37359 73.1059 12.3634 70.0532 16.0236 70.0532C19.6838 70.0532 22.6736 73.1059 22.6736 76.8432C22.6736 78.6658 21.9592 80.3262 20.8042 81.5504C23.5336 82.8059 25.7017 85.1058 26.8279 87.9493ZM70.5547 26.4188C72.8186 28.3979 75.7606 29.5928 78.9764 29.5928C82.1922 29.5928 85.1323 28.3979 87.3981 26.4188C86.6224 22.3921 83.1441 19.3531 78.9764 19.3531C74.8087 19.3531 71.3304 22.3921 70.5547 26.4188ZM43.8092 51.5097L39.9364 47.5574C39.5323 47.1447 38.8772 47.1428 38.4731 47.5554C38.069 47.972 38.0651 48.6408 38.4731 49.0535L44.1635 54.8695C44.5676 55.2822 45.2246 55.2822 45.6287 54.8695C49.0591 51.367 52.4473 47.8273 55.8623 44.311C56.2645 43.8945 56.2645 43.2256 55.8604 42.8149C55.4562 42.4062 54.8012 42.4082 54.399 42.8189L45.9831 51.5039C45.6958 51.7992 45.305 51.9654 44.8971 51.9674C44.4891 51.9693 44.0984 51.8031 43.8111 51.5097H43.8092ZM44.8856 48.1851L52.2213 40.6168L52.2251 40.6129C53.8186 38.978 56.4177 38.9701 58.019 40.5972C59.6202 42.2224 59.6316 44.8684 58.0381 46.5111C54.6193 50.0332 51.2272 53.5769 47.795 57.0814C46.1937 58.7163 43.5947 58.7163 41.9934 57.0814L36.303 51.2672C34.7037 49.6323 34.7018 46.9883 36.3011 45.3475V45.3436C37.9042 43.7106 40.5033 43.7106 42.1045 45.3436L44.8856 48.1851ZM47.1667 64.9646C55.8623 64.9646 62.9528 57.7248 62.9528 48.8462C62.9528 39.9675 55.8623 32.7219 47.1667 32.7219C38.4712 32.7219 31.3749 39.9656 31.3749 48.8462C31.3749 57.7267 38.4693 64.9646 47.1667 64.9646ZM16.0236 80.5041C17.9945 80.5041 19.6091 78.8575 19.6091 76.8432C19.6091 74.8288 17.9945 73.1822 16.0236 73.1822C14.0527 73.1822 12.4381 74.8288 12.4381 76.8432C12.4381 78.8575 14.0508 80.5041 16.0236 80.5041ZM7.6 90.697C9.86583 92.6761 12.8078 93.871 16.0236 93.871C19.2394 93.871 22.1794 92.6761 24.4453 90.697C23.6696 86.6703 20.1913 83.6332 16.0236 83.6332C11.8558 83.6332 8.37762 86.6703 7.6 90.697ZM78.9764 16.224C80.9492 16.224 82.5619 14.5774 82.5619 12.5631C82.5619 10.5487 80.9492 8.90405 78.9764 8.90405C77.0036 8.90405 75.3909 10.5507 75.3909 12.5631C75.3909 14.5754 77.0036 16.224 78.9764 16.224ZM89.7807 23.6692C91.1425 21.5766 91.9355 19.0636 91.9355 16.3609C91.9355 9.05268 86.134 3.12903 78.9764 3.12903C71.8188 3.12903 66.0173 9.05268 66.0173 16.3609C66.0173 19.0636 66.8103 21.5766 68.1721 23.6692C69.2964 20.8257 71.4664 18.5278 74.1938 17.2703C73.0389 16.048 72.3264 14.3877 72.3264 12.5631C72.3264 8.82778 75.3181 5.77502 78.9764 5.77502C82.6347 5.77502 85.6264 8.82778 85.6264 12.5631C85.6264 14.3877 84.9139 16.048 83.759 17.2703C86.4864 18.5278 88.6564 20.8257 89.7807 23.6692ZM28.3851 70.2292C30.672 73.057 32.0472 76.6848 32.0472 80.6391C32.0472 89.6761 24.8724 97 16.0236 97C7.1748 97 0 89.6761 0 80.6391C0 71.602 7.17288 64.2781 16.0236 64.2781C19.8964 64.2781 23.4474 65.6823 26.2189 68.0173L32.8018 61.2938C30.0016 57.934 28.3104 53.5866 28.3104 48.8462C28.3104 38.2426 36.7819 29.5928 47.1667 29.5928C51.8076 29.5928 56.0672 31.3216 59.3578 34.1808L66.613 26.7708C64.3261 23.943 62.9528 20.3152 62.9528 16.3609C62.9528 7.32389 70.1257 0 78.9764 0C87.8271 0 95 7.32389 95 16.3609C95 25.398 87.8271 32.7219 78.9764 32.7219C75.1017 32.7219 71.5507 31.3197 68.7811 28.9846L61.524 36.3926C64.3242 39.7544 66.0173 44.1057 66.0173 48.8462C66.0173 59.4497 57.5497 68.0936 47.1667 68.0936C42.5221 68.0936 38.2605 66.3648 34.97 63.5057L28.3851 70.2292ZM10.3753 48.8442C10.3753 47.0528 8.95222 45.5998 7.19778 45.5998C5.44335 45.5998 4.02218 47.0528 4.02218 48.8442C4.02218 50.6356 5.44526 52.0867 7.19778 52.0867C8.9503 52.0867 10.3753 50.6336 10.3753 48.8442ZM13.2502 50.4087C12.5664 53.1701 10.1148 55.2157 7.19778 55.2157C3.75403 55.2157 0.957661 52.3604 0.957661 48.8442C0.957661 45.3279 3.75403 42.4707 7.19778 42.4707C10.1148 42.4707 12.5664 44.5163 13.2502 47.2797H24.8149C25.6596 47.2797 26.3472 47.9798 26.3472 48.8442C26.3472 49.7086 25.6596 50.4087 24.8149 50.4087H13.2502ZM50.8671 82.1097C49.1127 82.1097 47.6896 83.5647 47.6896 85.3541C47.6896 87.1436 49.1127 88.5986 50.8671 88.5986C52.6216 88.5986 54.0427 87.1455 54.0427 85.3541C54.0427 83.5628 52.6197 82.1097 50.8671 82.1097ZM52.3994 79.1743C55.1038 79.8725 57.1073 82.3757 57.1073 85.3541C57.1073 88.8723 54.3109 91.7276 50.8671 91.7276C47.4234 91.7276 44.6251 88.8723 44.6251 85.3541C44.6251 82.3757 46.6285 79.8725 49.3349 79.1743V70.7533C49.3349 69.8909 50.0206 69.1888 50.8671 69.1888C51.7137 69.1888 52.3994 69.8909 52.3994 70.7533V79.1743ZM43.7747 14.0474C45.5291 14.0474 46.9522 12.5924 46.9522 10.803C46.9522 9.01357 45.5291 7.55857 43.7747 7.55857C42.0203 7.55857 40.5972 9.01161 40.5972 10.803C40.5972 12.5944 42.0222 14.0474 43.7747 14.0474ZM42.2424 16.9809C39.538 16.2827 37.5327 13.7795 37.5327 10.803C37.5327 7.28478 40.3309 4.42954 43.7747 4.42954C47.2184 4.42954 50.0167 7.28478 50.0167 10.803C50.0167 13.7795 48.0114 16.2827 45.307 16.9809V24.3224C45.307 25.1848 44.6213 25.8869 43.7747 25.8869C42.9281 25.8869 42.2424 25.1848 42.2424 24.3224V16.9809ZM84.6228 48.8442C84.6228 50.6336 86.0459 52.0867 87.8003 52.0867C89.5547 52.0867 90.9778 50.6336 90.9778 48.8442C90.9778 47.0548 89.5528 45.5998 87.8003 45.5998C86.0478 45.5998 84.6228 47.0528 84.6228 48.8442ZM81.7479 50.4087H70.6065C69.7618 50.4087 69.0742 49.7066 69.0742 48.8442C69.0742 47.9818 69.7618 47.2797 70.6065 47.2797H81.7479C82.4316 44.5163 84.8833 42.4707 87.8003 42.4707C91.244 42.4707 94.0423 45.326 94.0423 48.8442C94.0423 52.3624 91.244 55.2157 87.8003 55.2157C84.8833 55.2157 82.4316 53.1701 81.7479 50.4087ZM18.1094 14.0474C19.8638 14.0474 21.2869 12.5924 21.2869 10.803C21.2869 9.01357 19.8638 7.55857 18.1094 7.55857C16.3549 7.55857 14.9319 9.01161 14.9319 10.803C14.9319 12.5944 16.3569 14.0474 18.1094 14.0474ZM16.5771 16.9809C13.8727 16.2827 11.8673 13.7795 11.8673 10.803C11.8673 7.28478 14.6656 4.42954 18.1094 4.42954C21.5531 4.42954 24.3514 7.28478 24.3514 10.803C24.3514 13.7795 22.3461 16.2827 19.6416 16.9809V33.6723H26.7954C27.64 33.6723 28.3276 34.3724 28.3276 35.2368C28.3276 36.1012 27.64 36.8013 26.7954 36.8013H18.1094C17.2628 36.8013 16.5771 36.1012 16.5771 35.2368V16.9809Z" fill="#004D89"/>
</svg>
