<svg width="96" height="91" viewBox="0 0 96 91" fill="none" xmlns="http://www.w3.org/2000/svg">
<g clip-path="url(#clip0_450_786)">
<path fill-rule="evenodd" clip-rule="evenodd" d="M43.5581 21.4503L44.1794 17.559C44.3129 16.7208 45.1064 16.1478 45.9503 16.2805C46.7942 16.4131 47.371 17.2014 47.2374 18.0397L46.1419 24.9129C46.0374 25.5704 45.5168 26.0876 44.8548 26.1914L37.9355 27.2796C37.0916 27.4123 36.2981 26.8393 36.1645 26.0011C36.031 25.1629 36.6077 24.3746 37.4516 24.2419L41.369 23.6248L33.2032 15.5134C32.5994 14.9135 32.5994 13.9388 33.2032 13.3389C33.8071 12.7391 34.7884 12.7391 35.3942 13.3389L43.5581 21.4503ZM26.8935 26.0511L35.0594 34.1625C35.6632 34.7623 35.6632 35.7371 35.0594 36.3369C34.4555 36.9368 33.4742 36.9368 32.8703 36.3369L24.7045 28.2255L24.0832 32.1169C23.9497 32.9551 23.1561 33.528 22.3123 33.3954C21.4684 33.2627 20.8916 32.4745 21.0252 31.6362L22.1206 24.763C22.2252 24.1054 22.7458 23.5882 23.4077 23.4844L30.3271 22.3962C31.171 22.2636 31.9645 22.8365 32.0981 23.6748C32.2335 24.513 31.6568 25.3013 30.811 25.4339L26.8935 26.0511ZM72.6697 67.1484C72.1665 67.8347 71.1968 67.9866 70.5058 67.4887C69.8148 66.9907 69.6619 66.0275 70.1632 65.3411L72.3465 62.3573L70.1632 59.3734C69.6619 58.687 69.8148 57.7238 70.5058 57.2259C71.1968 56.726 72.1665 56.8798 72.6697 57.5662L75.5129 61.4556C75.9077 61.9939 75.9077 62.7245 75.5129 63.2628L72.6697 67.1522V67.1484ZM58.7381 65.3411C59.2413 66.0275 59.0864 66.9907 58.3955 67.4887C57.7045 67.9885 56.7348 67.8347 56.2335 67.1484L53.3884 63.259C52.9935 62.7206 52.9935 61.9901 53.3884 61.4517L56.2335 57.5623C56.7348 56.876 57.7045 56.7241 58.3955 57.222C59.0864 57.7219 59.2413 58.6832 58.7381 59.3696L56.5548 62.3534L58.7381 65.3373V65.3411ZM63.9871 66.9542C63.5942 67.7078 62.6574 68.002 61.8987 67.6098C61.1419 67.2176 60.8458 66.289 61.2387 65.5353L64.9142 58.5063C65.309 57.7527 66.2439 57.4585 67.0026 57.8507C67.7613 58.241 68.0555 59.1715 67.6626 59.9252L63.9871 66.9542ZM64.4497 46.9592C55.8852 46.9592 48.9503 53.8479 48.9503 62.3553C48.9503 70.8628 55.8852 77.761 64.4497 77.761C73.0142 77.761 79.9587 70.8628 79.9587 62.3553C79.9587 53.8479 73.0142 46.9592 64.4497 46.9592ZM64.4497 43.8831C74.7252 43.8831 83.0555 52.1483 83.0555 62.3553C83.0555 72.5624 74.7232 80.8372 64.4497 80.8372C54.1761 80.8372 45.8535 72.5624 45.8535 62.3553C45.8535 52.1483 54.1742 43.8831 64.4497 43.8831ZM68.4406 40.2994L67.0819 36.7887H61.8252L60.4606 40.3013C60.2768 40.7743 59.8703 41.1261 59.3729 41.2434C57.1258 41.774 54.9813 42.6565 53.009 43.862C52.5755 44.1273 52.0355 44.1638 51.569 43.9581L48.1084 42.4296L44.3942 46.1191L45.9329 49.5547C46.14 50.0181 46.1032 50.5545 45.8361 50.9871C44.6206 52.9462 43.7323 55.0764 43.1903 57.3182C43.0703 57.8103 42.7161 58.2122 42.24 58.3948L38.7116 59.7445V64.9662L42.24 66.3159C42.7161 66.4985 43.0703 66.9003 43.1903 67.3906C43.7323 69.6246 44.6187 71.7626 45.8342 73.714C46.1032 74.1466 46.14 74.683 45.9329 75.1483L44.3942 78.5839L48.1103 82.2753L51.571 80.7526C52.0355 80.5469 52.5735 80.5834 53.0071 80.8468C54.9794 82.0465 57.1239 82.9367 59.3806 83.4673C59.8781 83.5846 60.2845 83.9383 60.4684 84.4113L61.8271 87.9162H67.0819L68.4406 84.4113C68.6245 83.9383 69.031 83.5846 69.5284 83.4673C71.7755 82.9367 73.9258 82.0542 75.8903 80.8487C76.3239 80.5815 76.8639 80.545 77.3303 80.7507L80.791 82.2734L84.509 78.5801L82.9761 75.1425C82.769 74.6811 82.8058 74.1466 83.071 73.7159C84.2787 71.7568 85.1768 69.6266 85.711 67.3906C85.829 66.8965 86.1852 66.4928 86.6613 66.3101L90.1897 64.9604V59.7387L86.6613 58.389C86.1832 58.2064 85.829 57.8026 85.711 57.3085C85.1768 55.0687 84.2884 52.9385 83.0729 50.9813C82.8058 50.5506 82.769 50.0142 82.9761 49.5509L84.509 46.1133L80.7929 42.4219L77.3323 43.9504C76.8658 44.1561 76.3258 44.1215 75.8923 43.8543C73.92 42.6469 71.7755 41.7644 69.5284 41.2357C69.031 41.1184 68.6245 40.7647 68.4406 40.2917V40.2994ZM87.4761 52.7943C90.7723 50.2526 92.9032 46.2825 92.9032 41.8432C92.9032 35.5987 88.6413 30.0943 82.5813 28.4601C81.9658 28.2947 81.5148 27.7699 81.4471 27.1412C80.3187 16.7727 71.4832 8.70356 60.7452 8.70356C58.2794 8.70356 55.9142 9.12845 53.7194 9.91095C53.1639 10.109 52.5426 9.97632 52.1187 9.56873C47.9381 5.54859 42.24 3.07614 35.9632 3.07614C23.131 3.07614 12.7316 13.412 12.7316 26.1588C12.7316 26.6029 12.7413 27.047 12.7665 27.4873C12.8052 28.1429 12.42 28.7504 11.8084 28.9984C6.71613 31.0748 3.09677 36.0582 3.09677 41.8432C3.09677 49.4663 9.37935 55.7051 17.0594 55.7051H40.4148C40.9664 53.7383 41.7581 51.8522 42.7781 50.0815L41.1329 46.4055C40.8716 45.8249 40.9994 45.1424 41.4523 44.6925L46.6723 39.5073C47.1252 39.0574 47.8103 38.9305 48.3948 39.1901L52.0955 40.8243C53.911 39.7938 55.8445 38.9978 57.8594 38.4518L59.3187 34.6931C59.549 34.101 60.1239 33.7088 60.7626 33.7088H68.1464C68.7871 33.7088 69.3619 34.101 69.5923 34.695L71.0439 38.4518C73.0568 38.9978 74.9903 39.7938 76.8058 40.8243L80.5065 39.1901C81.091 38.9324 81.7761 39.0574 82.231 39.5073L87.449 44.6925C87.9019 45.1424 88.0297 45.8211 87.7703 46.4036L86.131 50.0796C86.6361 50.9563 87.0852 51.8618 87.4761 52.7924V52.7943ZM35.6148 58.7832H17.0594C7.67613 58.7832 0 51.1582 0 41.8432C0 35.1622 3.94839 29.3522 9.63871 26.5971C9.63484 26.451 9.63484 26.3049 9.63484 26.1588C9.63484 11.7124 21.42 0 35.9632 0C42.7335 0 48.9116 2.53974 53.5781 6.7156C55.8406 6.01001 58.2484 5.62934 60.7452 5.62934C72.7277 5.62934 82.6471 14.3771 84.3929 25.7954C91.26 28.1044 96 34.5624 96 41.8432C96 47.6302 93.0406 52.7655 88.5464 55.8243L92.2935 57.2566C92.8916 57.4854 93.2865 58.0564 93.2865 58.6928V66.0275C93.2865 66.6639 92.8916 67.2349 92.2935 67.4637L88.5194 68.9075C87.9677 70.907 87.1626 72.8277 86.131 74.6311L87.7703 78.309C88.0297 78.8896 87.9019 79.5702 87.449 80.0201L82.231 85.2053C81.7781 85.6552 81.0929 85.7821 80.5084 85.5245L76.8077 83.896C74.9961 84.9265 73.0587 85.7225 71.0439 86.2685L69.5903 90.0176C69.3619 90.6116 68.7871 91.0038 68.1464 91.0038H60.7626C60.1219 91.0038 59.5471 90.6116 59.3187 90.0176L57.8652 86.2685C55.8465 85.7206 53.911 84.9208 52.0974 83.8941L48.3929 85.5225C47.8084 85.7802 47.1232 85.6533 46.6723 85.2034L41.4523 80.0182C40.9994 79.5683 40.8716 78.8877 41.1329 78.3051L42.7761 74.6311C41.7406 72.8335 40.9394 70.907 40.3839 68.9075L36.6077 67.4637C36.0097 67.2349 35.6148 66.6639 35.6148 66.0275V58.7832Z" fill="#004D89"/>
</g>
<defs>
<clipPath id="clip0_450_786">
<rect width="96" height="91" fill="white"/>
</clipPath>
</defs>
</svg>
