<svg width="88" height="88" viewBox="31 29 88 88" fill="none" xmlns="http://www.w3.org/2000/svg">
<g clip-path="url(#clip0_442_741)">
<path d="M75.2055 46.4099C61.6644 46.4099 50.6456 57.7357 50.6456 71.658C50.6456 85.5804 61.6644 96.9061 75.2055 96.9061C88.7466 96.9061 99.7654 85.5804 99.7654 71.658C99.7654 57.7357 88.7483 46.4099 75.2055 46.4099ZM75.2055 94.0193C63.2114 94.0193 53.452 83.9882 53.452 71.6562C53.452 59.3243 63.2114 49.2932 75.2055 49.2932C87.1995 49.2932 96.9589 59.3243 96.9589 71.6562C96.9589 83.9882 87.2013 94.0193 75.2055 94.0193ZM85.8542 59.5822H85.8349C84.5457 59.5876 83.3336 60.1087 82.4268 61.0517L72.1587 71.7121L67.9824 67.4188C66.0968 65.4803 63.0273 65.4803 61.1399 67.4188C59.2543 69.3572 59.2543 72.5127 61.1399 74.453L68.7507 82.277C69.6943 83.2471 70.9327 83.7321 72.1728 83.7321C73.4129 83.7321 74.6494 83.2471 75.5931 82.277C78.4732 79.3143 81.3796 76.285 84.1913 73.3548C85.8875 71.5859 87.5836 69.817 89.285 68.0517C91.1583 66.1079 91.1478 62.9577 89.2622 61.0319C88.3501 60.0997 87.1416 59.5858 85.8542 59.5858M87.2925 66.0177C85.5893 67.7848 83.8897 69.5555 82.1918 71.3263C79.3853 74.2528 76.4824 77.2803 73.6076 80.234C72.8165 81.049 71.5273 81.049 70.7362 80.234L63.1255 72.41C62.3327 71.5967 62.3327 70.2714 63.1255 69.4564C63.5219 69.0488 64.0411 68.8451 64.562 68.8451C65.083 68.8451 65.6022 69.0488 65.9986 69.4564L71.173 74.7757C71.4361 75.0462 71.7921 75.1977 72.164 75.1977H72.1675C72.5411 75.1977 72.8989 75.0426 73.162 74.7703L84.4211 63.0803C84.8 62.6872 85.3069 62.469 85.8471 62.4672H85.8542C86.3944 62.4672 86.9013 62.6818 87.2837 63.0731C88.0748 63.8809 88.0783 65.2009 87.2925 66.0177ZM46.8867 51.4715C51.6664 51.4715 55.5534 47.4738 55.5534 42.562C55.5534 37.6501 51.6664 33.6524 46.8867 33.6524C42.107 33.6524 38.2201 37.6501 38.2201 42.562C38.2201 47.4738 42.107 51.4715 46.8867 51.4715ZM46.8867 36.5375C50.1176 36.5375 52.7469 39.2405 52.7469 42.562C52.7469 45.8834 50.1176 48.5864 46.8867 48.5864C43.6558 48.5864 41.0265 45.8834 41.0265 42.562C41.0265 39.2405 43.6558 36.5375 46.8867 36.5375ZM103.507 51.4534C108.286 51.4534 112.175 47.4558 112.175 42.5439C112.175 37.6321 108.286 33.6344 103.507 33.6344C98.727 33.6344 94.84 37.6321 94.84 42.5439C94.84 47.4558 98.7287 51.4534 103.507 51.4534ZM103.507 36.5177C106.739 36.5177 109.369 39.2207 109.369 42.5421C109.369 45.8636 106.739 48.5665 103.507 48.5665C100.274 48.5665 97.6465 45.8636 97.6465 42.5421C97.6465 39.2207 100.276 36.5177 103.507 36.5177ZM103.524 91.841C98.7463 91.841 94.8576 95.8387 94.8576 100.751C94.8576 105.662 98.7463 109.66 103.524 109.66C108.302 109.66 112.193 105.662 112.193 100.751C112.193 95.8387 108.304 91.841 103.524 91.841ZM103.524 106.775C100.293 106.775 97.664 104.072 97.664 100.751C97.664 97.4291 100.293 94.7261 103.524 94.7261C106.755 94.7261 109.386 97.4291 109.386 100.751C109.386 104.072 106.757 106.775 103.524 106.775ZM46.9042 91.859C42.1263 91.859 38.2376 95.8567 38.2376 100.769C38.2376 105.68 42.1263 109.678 46.9042 109.678C51.6822 109.678 55.5709 105.68 55.5709 100.769C55.5709 95.8567 51.684 91.859 46.9042 91.859ZM46.9042 106.793C43.6733 106.793 41.044 104.09 41.044 100.769C41.044 97.4471 43.6733 94.7441 46.9042 94.7441C50.1352 94.7441 52.7644 97.4471 52.7644 100.769C52.7644 104.09 50.1369 106.793 46.9042 106.793ZM94.5997 107.716C94.9488 108.427 94.6734 109.296 93.9823 109.655C88.2537 112.639 81.9462 114.188 75.237 114.26C75.1002 114.26 74.9617 114.262 74.8248 114.262C69.8767 114.262 64.9549 113.326 60.3524 111.526L61.7521 113.78C62.1695 114.451 61.9766 115.344 61.3241 115.773C61.0891 115.926 60.8277 116 60.5699 116C60.1068 116 59.6543 115.764 59.3859 115.333L55.4639 109.013C55.2078 108.602 55.1727 108.086 55.3674 107.64C55.5639 107.195 55.9655 106.883 56.4356 106.811L63.6447 105.682C64.4112 105.563 65.1268 106.104 65.2426 106.892C65.3601 107.68 64.8339 108.416 64.0674 108.535L61.5872 108.923C65.9249 110.583 70.5591 111.424 75.209 111.375C81.4831 111.308 87.3732 109.864 92.7142 107.081C93.4053 106.721 94.2489 107.006 94.5997 107.716ZM38.1341 90.7411C35.247 84.7816 33.7806 78.3568 33.7718 71.6472C33.7666 66.62 34.5945 61.7406 36.2363 57.0829L34.1946 58.5147C33.5543 58.9637 32.6808 58.7942 32.2441 58.136C31.8073 57.4778 31.9722 56.5799 32.6124 56.1309L38.6375 51.9078C39.0304 51.6319 39.5303 51.5796 39.9688 51.769C40.4073 51.9565 40.7231 52.3604 40.809 52.8401L42.1263 60.2151C42.2648 60.9995 41.7614 61.7496 40.9984 61.8938C40.9125 61.9101 40.8283 61.9173 40.7441 61.9173C40.0793 61.9173 39.49 61.4304 39.3654 60.7344L38.8848 58.0404C37.3466 62.3897 36.573 66.9481 36.5783 71.6436C36.5853 77.9042 37.9552 83.8962 40.6476 89.4536C40.9932 90.1659 40.7108 91.0332 40.0162 91.3884C39.8162 91.4912 39.6022 91.5399 39.3917 91.5399C38.8761 91.5399 38.3797 91.246 38.1341 90.7393M55.4797 35.7658C55.1113 35.0643 55.3657 34.1898 56.048 33.8111C61.6889 30.6844 68.3192 29.0327 75.223 29.0327C79.8484 29.0327 84.3387 29.7991 88.629 31.3101L87.2188 29.2815C86.768 28.6342 86.9136 27.7326 87.5433 27.2692C88.1747 26.8058 89.05 26.9554 89.5008 27.6046L93.742 33.7047C94.0174 34.1014 94.0788 34.6153 93.9069 35.0697C93.7333 35.5241 93.3491 35.8577 92.8843 35.9569L85.7419 37.4734C85.6454 37.4932 85.5507 37.504 85.456 37.504C84.8035 37.504 84.2194 37.0352 84.0826 36.3536C83.9265 35.5728 84.4141 34.8101 85.1736 34.6496L87.8362 34.0852C83.802 32.6499 79.5783 31.9232 75.223 31.9232C68.784 31.9232 62.6133 33.4559 57.381 36.3554C57.1688 36.4726 56.9408 36.5285 56.7163 36.5285C56.2164 36.5285 55.7323 36.2544 55.4797 35.7712M118.397 85.7914L112.405 90.0649C112.166 90.2344 111.887 90.3227 111.605 90.3227C111.426 90.3227 111.245 90.2885 111.075 90.2163C110.635 90.0324 110.316 89.6321 110.226 89.1525L108.851 81.7901C108.706 81.0075 109.204 80.252 109.965 80.1023C110.728 79.9527 111.461 80.4648 111.609 81.2473L112.063 83.6852C113.261 79.8174 113.868 75.7873 113.868 71.649C113.868 65.5867 112.575 59.7661 110.023 54.3529C109.686 53.6353 109.977 52.7734 110.675 52.4253C111.372 52.0773 112.212 52.3785 112.549 53.0943C115.287 58.9042 116.674 65.1468 116.674 71.649C116.674 76.2399 115.978 80.7082 114.604 84.9871L116.797 83.422C117.434 82.9676 118.307 83.1299 118.749 83.7844C119.191 84.439 119.033 85.3369 118.397 85.7914Z" fill="#004D89"/>
</g>
<defs>
<clipPath id="clip0_442_741">
<rect width="88" height="88" fill="white" transform="translate(31 29)"/>
</clipPath>
</defs>
</svg>
