<svg width="124" height="117" viewBox="0 0 124 117" fill="none" xmlns="http://www.w3.org/2000/svg">
<g clip-path="url(#clip0_442_742)">
<path fill-rule="evenodd" clip-rule="evenodd" d="M70.7753 38.8762H53.2202V56.4952H70.7753V38.8762ZM62.0002 94.98C57.0502 94.98 53.0302 99.0147 53.0302 103.983C53.0302 108.951 57.0502 112.985 62.0002 112.985C66.9502 112.985 70.9703 108.951 70.9703 103.983C70.9703 99.0147 66.9502 94.98 62.0002 94.98ZM107.795 94.98C102.845 94.98 98.8252 99.0147 98.8252 103.983C98.8252 108.951 102.845 112.985 107.795 112.985C112.745 112.985 116.765 108.951 116.765 103.983C116.765 99.0147 112.745 94.98 107.795 94.98ZM16.2052 94.98C11.2552 94.98 7.23525 99.0147 7.23525 103.983C7.23525 108.951 11.2552 112.985 16.2052 112.985C21.1553 112.985 25.1752 108.951 25.1752 103.983C25.1752 99.0147 21.1553 94.98 16.2052 94.98ZM29.0203 105.99C28.0553 112.223 22.6803 117 16.2052 117C9.04525 117 3.23525 111.169 3.23525 103.983C3.23525 96.7966 9.04525 90.9654 16.2052 90.9654C22.6852 90.9654 28.0603 95.7428 29.0203 101.975H49.1802C50.0452 96.4002 54.4402 91.9841 59.9952 91.121V60.5048H51.2152C50.1102 60.5048 49.2152 59.6065 49.2152 58.4975V36.8639C49.2152 35.7549 50.1102 34.8566 51.2152 34.8566H72.7702C73.8753 34.8566 74.7702 35.7549 74.7702 36.8639V58.4975C74.7702 59.6065 73.8753 60.5048 72.7702 60.5048H63.9952V91.121C69.5502 91.9841 73.9502 96.4002 74.8102 101.975H94.9753C95.9402 95.7428 101.315 90.9654 107.79 90.9654C114.95 90.9654 120.76 96.7966 120.76 103.983C120.76 111.169 114.95 117 107.79 117C101.31 117 95.9352 112.223 94.9753 105.99H74.8102C73.8453 112.223 68.4702 117 61.9952 117C55.5202 117 50.1402 112.223 49.1802 105.99H29.0203ZM68.5153 77.5216C67.4102 77.5216 66.5153 76.6233 66.5153 75.5143C66.5153 74.4053 67.4102 73.507 68.5153 73.507H105.285C113.41 73.507 120.005 66.888 120.005 58.7384C120.005 51.4268 114.7 45.3497 107.75 44.1755C106.73 44.0048 106.005 43.0765 106.09 42.0377C106.13 41.5158 106.15 40.9939 106.15 40.462C106.15 29.6276 97.3853 20.8357 86.5953 20.8357C84.7753 20.8357 83.0153 21.0866 81.3453 21.5533C80.3953 21.8193 79.3952 21.3526 78.9902 20.4543C74.5902 10.7691 64.8552 4.02462 53.5602 4.02462C38.7752 4.02462 26.6553 15.5766 25.6903 30.1746C25.6203 31.1983 24.8003 32.0063 23.7803 32.0464C12.7853 32.5181 4.00525 41.6212 4.00525 52.7717C4.00525 63.9222 13.2652 73.5171 24.6752 73.5171H55.4952C56.6002 73.5171 57.4952 74.4153 57.4952 75.5243C57.4952 76.6334 56.6002 77.5316 55.4952 77.5316H24.6752C11.0602 77.5316 0.00524902 66.4363 0.00524902 52.7717C0.00524902 40.0655 9.56525 29.5774 21.8603 28.1723C23.7703 12.3047 37.2402 0 53.5552 0C65.8752 0 76.5753 7.01548 81.9003 17.2828C83.4153 16.9767 84.9853 16.8111 86.5953 16.8111C99.5953 16.8111 110.15 27.4045 110.15 40.4519C110.15 40.4971 110.15 40.5423 110.15 40.5874C118.125 42.7403 124.005 50.0518 124.005 58.7334C124.005 69.101 115.615 77.5166 105.285 77.5166H68.5153V77.5216Z" fill="#004D89"/>
</g>
<defs>
<clipPath id="clip0_442_742">
<rect width="124" height="117" fill="white"/>
</clipPath>
</defs>
</svg>
