<svg xmlns="http://www.w3.org/2000/svg" viewBox="76.6025 0 46.6275 45" fill="none">
  <path d="M111.209 17.021C111.064 16.5321 110.814 16.113 110.453 15.7553C110.091 15.3976 109.656 15.1499 109.133 15.0176C108.651 14.8938 107.911 14.8081 106.92 14.7456C105.93 14.6832 104.9 14.6366 103.83 14.6059C102.76 14.5753 101.843 14.552 101.07 14.5361C100.306 14.5202 99.9196 14.5128 99.9196 14.5128C99.9196 14.5128 99.5249 14.5202 98.7528 14.5361C97.9721 14.552 97.0465 14.5753 95.9773 14.5985C94.9147 14.6218 93.885 14.6684 92.8959 14.7308C91.9057 14.8007 91.1654 14.8864 90.6753 14.9944C90.1763 15.1341 89.7421 15.3828 89.3714 15.7479C89.0007 16.113 88.7441 16.5321 88.5994 17.021C88.4788 17.4867 88.3823 18.0307 88.3176 18.6435C88.2529 19.2573 88.2134 19.8552 88.1805 20.4447C88.1487 21.0268 88.1246 21.5168 88.1158 21.92C88.1081 22.3233 88.1081 22.5254 88.1081 22.5254C88.1081 22.5254 88.1081 22.7191 88.1158 23.1159C88.1235 23.5118 88.1476 24.0007 88.1805 24.5913C88.2123 25.1818 88.2529 25.7872 88.3176 26.3925C88.3823 26.9979 88.4788 27.526 88.5994 27.9842C88.7441 28.4817 88.9942 28.9082 89.356 29.2659C89.7179 29.6236 90.161 29.8712 90.6753 30.0109C91.1819 30.1274 91.9221 30.2205 92.9036 30.2829C93.885 30.3454 94.9147 30.3835 95.9938 30.4152C97.0718 30.4459 97.9896 30.4692 98.7616 30.4777C99.5336 30.4851 99.9207 30.4851 99.9207 30.4851C99.9207 30.4851 100.307 30.4851 101.071 30.4777C101.843 30.4702 102.761 30.4544 103.831 30.4311C104.902 30.4078 105.931 30.3612 106.921 30.2914C107.911 30.2215 108.652 30.1358 109.134 30.0279C109.657 29.8956 110.092 29.6469 110.454 29.2902C110.815 28.9336 111.066 28.506 111.21 28.0086C111.339 27.5503 111.427 27.0148 111.492 26.401C111.557 25.7872 111.605 25.1892 111.637 24.6071C111.669 24.025 111.685 23.5276 111.693 23.1244C111.7 22.7286 111.709 22.5265 111.709 22.5265C111.709 22.5265 111.702 22.3243 111.693 21.9285C111.685 21.5401 111.669 21.0437 111.645 20.4532C111.62 19.8627 111.572 19.2573 111.507 18.6435C111.435 18.0296 111.339 17.4867 111.21 17.021H111.209ZM103.685 22.5275L97.5619 25.9131V19.088L103.685 22.5275ZM99.9207 1.02552C95.8337 1.02552 92.1074 1.996 88.7365 3.92956C85.3655 5.86312 82.6777 8.45708 80.6742 11.7104C78.6707 14.9637 77.6651 18.5588 77.6651 22.5042C77.6651 26.4497 78.6707 30.0448 80.6742 33.2981C82.6777 36.5514 85.3655 39.1453 88.7365 41.0789C92.1074 43.0125 95.8326 43.9755 99.9207 43.9755C104.009 43.9755 107.734 43.0125 111.105 41.0789C114.476 39.1453 117.164 36.5514 119.167 33.2981C121.171 30.0448 122.169 26.4486 122.169 22.5042C122.169 18.5599 121.171 14.9637 119.167 11.7104C117.164 8.45708 114.476 5.86312 111.105 3.92956C107.734 1.996 104.009 1.02552 99.9207 1.02552ZM99.9207 45C96.8064 45 93.8379 44.4327 91.0053 43.3067C88.1816 42.1732 85.655 40.5423 83.4421 38.4066C81.2214 36.2635 79.5316 33.8325 78.3648 31.1C77.1903 28.3748 76.6025 25.5014 76.6025 22.5042C76.6025 19.5071 77.1903 16.6337 78.3648 13.9C79.5316 11.1749 81.2214 8.73648 83.4421 6.60078C85.655 4.45767 88.1816 2.82679 91.0053 1.70073C93.8368 0.567262 96.8064 0 99.9207 0C103.035 0 106.004 0.567262 108.827 1.70073C111.66 2.82679 114.178 4.45767 116.398 6.60078C118.611 8.73648 120.301 11.1749 121.476 13.9C122.642 16.6337 123.23 19.4986 123.23 22.5042C123.23 25.5099 122.642 28.3748 121.476 31.1C120.301 33.8336 118.611 36.2635 116.398 38.4066C114.178 40.5423 111.659 42.1732 108.827 43.3067C106.004 44.4327 103.026 45 99.9207 45Z" fill="#7FA6C4"/>
</svg>
