<svg width="104" height="104" viewBox="0 0 104 104" fill="none" xmlns="http://www.w3.org/2000/svg">
<g clip-path="url(#clip0_442_736)">
<path d="M66.1039 26.3978C62.2118 25.1574 57.0666 24.4747 51.6176 24.4747C46.1687 24.4747 41.0256 25.1574 37.1314 26.3978C31.3869 28.2253 30.1797 30.6896 30.1797 32.4338V70.8036C30.1797 72.5478 31.3869 75.01 37.1314 76.8395C41.0256 78.0779 46.1707 78.7606 51.6176 78.7606C57.0646 78.7606 62.2118 78.0779 66.1039 76.8395C71.8505 75.01 73.0556 72.5478 73.0556 70.8036V32.4338C73.0556 30.6896 71.8505 28.2253 66.1039 26.3978ZM51.6176 75.4305C39.6707 75.4305 33.5098 72.1877 33.5098 70.8036V62.5156C34.4506 63.0547 35.6349 63.573 37.1314 64.0496C41.0256 65.288 46.1707 65.9707 51.6176 65.9707C57.0646 65.9707 62.2118 65.288 66.1039 64.0496C67.6004 63.573 68.7868 63.0547 69.7255 62.5156V70.8036C69.7255 72.1877 63.5646 75.4305 51.6176 75.4305ZM51.6176 62.6405C39.6707 62.6405 33.5098 59.3978 33.5098 58.0137V49.7257C34.4506 50.2648 35.6349 50.783 37.1314 51.2597C41.0256 52.5001 46.1707 53.1807 51.6176 53.1807C57.0646 53.1807 62.2118 52.5001 66.1039 51.2597C67.6004 50.783 68.7868 50.2648 69.7255 49.7257V58.0137C69.7255 59.3978 63.5646 62.6405 51.6176 62.6405ZM51.6176 49.8506C39.6707 49.8506 33.5098 46.6078 33.5098 45.2237V36.9358C34.4506 37.4748 35.6349 37.9952 37.1314 38.4697C41.0256 39.7102 46.1707 40.3929 51.6176 40.3929C57.0646 40.3929 62.2118 39.7102 66.1039 38.4697C67.6004 37.9952 68.7868 37.4748 69.7255 36.9358V45.2237C69.7255 46.6078 63.5646 49.8506 51.6176 49.8506ZM51.6176 37.0627C39.6707 37.0627 33.5098 33.8179 33.5098 32.4338C33.5098 31.0497 39.6707 27.8048 51.6176 27.8048C63.5646 27.8048 69.7255 31.0497 69.7255 32.4338C69.7255 33.8179 63.5646 37.0627 51.6176 37.0627ZM55.2642 45.1217C55.2642 46.0417 54.517 46.7868 53.5991 46.7868H49.6383C48.7183 46.7868 47.9732 46.0417 47.9732 45.1217C47.9732 44.2018 48.7183 43.4566 49.6383 43.4566H53.5991C54.517 43.4566 55.2642 44.2018 55.2642 45.1217ZM55.2642 57.9117C55.2642 58.8316 54.517 59.5768 53.5991 59.5768H49.6383C48.7183 59.5768 47.9732 58.8316 47.9732 57.9117C47.9732 56.9917 48.7183 56.2466 49.6383 56.2466H53.5991C54.517 56.2466 55.2642 56.9917 55.2642 57.9117ZM55.2642 70.7016C55.2642 71.6216 54.517 72.3667 53.5991 72.3667H49.6383C48.7183 72.3667 47.9732 71.6216 47.9732 70.7016C47.9732 69.7816 48.7183 69.0365 49.6383 69.0365H53.5991C54.517 69.0365 55.2642 69.7816 55.2642 70.7016ZM49.9526 12.4736V17.0359L49.7902 16.8278C49.2241 16.1014 48.1772 15.9723 47.4529 16.5385C46.7285 17.1046 46.5995 18.1515 47.1656 18.8758L50.3064 22.897C50.6207 23.3029 51.1056 23.5381 51.6176 23.5381C52.1297 23.5381 52.6146 23.3029 52.931 22.897L56.0718 18.8758C56.6379 18.1515 56.5088 17.1046 55.7824 16.5385C55.0581 15.9723 54.0112 16.1014 53.4472 16.8278L53.2827 17.0359V12.4736C55.9781 11.7409 57.9658 9.27244 57.9658 6.34814C57.9658 2.84938 55.1185 0 51.6176 0C48.1168 0 45.2695 2.84938 45.2695 6.34814C45.2695 9.27244 47.2572 11.7409 49.9526 12.4736ZM51.6176 3.33017C53.2827 3.33017 54.6356 4.68513 54.6356 6.34814C54.6356 8.01114 53.2827 9.36611 51.6176 9.36611C49.9526 9.36611 48.5997 8.01322 48.5997 6.34814C48.5997 4.68305 49.9546 3.33017 51.6176 3.33017ZM53.2827 90.7617V86.2015L53.4472 86.4096C53.7739 86.83 54.2651 87.0507 54.7605 87.0507C55.1185 87.0507 55.4786 86.9341 55.7824 86.6968C56.5088 86.1307 56.6379 85.0838 56.0718 84.3595L52.931 80.3383C52.6146 79.9345 52.1297 79.6972 51.6176 79.6972C51.1056 79.6972 50.6207 79.9345 50.3064 80.3383L47.1656 84.3595C46.5995 85.0838 46.7285 86.1307 47.4529 86.6968C48.1772 87.263 49.2241 87.1339 49.7902 86.4096L49.9526 86.2015V90.7617C47.2572 91.4964 45.2695 93.9629 45.2695 96.8872C45.2695 100.388 48.1168 103.235 51.6176 103.235C55.1185 103.235 57.9658 100.388 57.9658 96.8872C57.9658 93.9629 55.9781 91.4964 53.2827 90.7617ZM51.6176 99.9051C49.9546 99.9051 48.5997 98.5522 48.5997 96.8872C48.5997 95.2221 49.9546 93.8692 51.6176 93.8692C53.2807 93.8692 54.6356 95.2242 54.6356 96.8872C54.6356 98.5502 53.2827 99.9051 51.6176 99.9051ZM96.8872 45.2695C93.9629 45.2695 91.4964 47.2572 90.7617 49.9526H81.8743L82.0825 49.7902C82.8068 49.2241 82.9358 48.1772 82.3697 47.4529C81.8036 46.7285 80.7566 46.5995 80.0323 47.1656L76.0112 50.3064C75.6074 50.6207 75.3722 51.1056 75.3722 51.6176C75.3722 52.1297 75.6074 52.6146 76.0112 52.931L80.0323 56.0718C80.3362 56.309 80.6984 56.4235 81.0564 56.4235C81.5517 56.4235 82.0408 56.205 82.3697 55.7845C82.9358 55.0581 82.8068 54.0133 82.0825 53.4472L81.8743 53.2827H90.7617C91.4964 55.9781 93.9629 57.9658 96.8872 57.9658C100.388 57.9658 103.235 55.1185 103.235 51.6176C103.235 48.1168 100.388 45.2695 96.8872 45.2695ZM96.8872 54.6356C95.2242 54.6356 93.8692 53.2827 93.8692 51.6176C93.8692 49.9526 95.2242 48.5997 96.8872 48.5997C98.5502 48.5997 99.9051 49.9546 99.9051 51.6176C99.9051 53.2807 98.5522 54.6356 96.8872 54.6356ZM27.2241 50.3064L23.203 47.1656C22.4787 46.5995 21.4317 46.7285 20.8656 47.4529C20.2995 48.1772 20.4285 49.2241 21.1528 49.7902L21.363 49.9526H12.4736C11.7409 47.2572 9.27244 45.2695 6.34814 45.2695C2.8473 45.2695 0 48.1189 0 51.6176C0 55.1164 2.8473 57.9658 6.34814 57.9658C9.27244 57.9658 11.7409 55.9781 12.4736 53.2827H21.363L21.1528 53.4472C20.4285 54.0133 20.2995 55.0581 20.8656 55.7845C21.1945 56.205 21.6836 56.4235 22.1789 56.4235C22.539 56.4235 22.8991 56.309 23.203 56.0718L27.2241 52.931C27.63 52.6146 27.8652 52.1317 27.8652 51.6176C27.8652 51.1036 27.63 50.6207 27.2241 50.3064ZM6.34814 54.6356C4.68513 54.6356 3.33017 53.2827 3.33017 51.6176C3.33017 49.9526 4.68513 48.5997 6.34814 48.5997C8.01114 48.5997 9.36611 49.9546 9.36611 51.6176C9.36611 53.2807 8.01322 54.6356 6.34814 54.6356ZM4.68305 12.4736V22.9844C4.68305 23.5797 5.0015 24.1292 5.5156 24.4268L21.1778 33.4703L20.9156 33.5057C20.006 33.6347 19.3712 34.4756 19.4981 35.3872C19.6147 36.2198 20.3286 36.8213 21.1445 36.8213C21.2215 36.8213 21.3006 36.815 21.3776 36.8046L26.4311 36.0949C26.939 36.0241 27.3865 35.7223 27.6425 35.279C27.8985 34.8336 27.936 34.2966 27.7445 33.822L25.8317 29.0911C25.4862 28.2398 24.5163 27.8277 23.6629 28.1712C22.8117 28.5167 22.3996 29.4866 22.743 30.3399L22.8429 30.5855L8.01322 22.0228V12.4736C10.7086 11.7409 12.6963 9.27244 12.6963 6.34814C12.6963 2.84938 9.84898 0 6.34814 0C2.8473 0 0 2.84938 0 6.34814C0 9.27244 1.9877 11.7409 4.68305 12.4736ZM6.34814 3.33017C8.01322 3.33017 9.36611 4.68513 9.36611 6.34814C9.36611 8.01114 8.01322 9.36611 6.34814 9.36611C4.68305 9.36611 3.33017 8.01322 3.33017 6.34814C3.33017 4.68305 4.68513 3.33017 6.34814 3.33017ZM76.8041 36.0949L81.8577 36.8046C81.9368 36.815 82.0138 36.8213 82.0908 36.8213C82.9088 36.8213 83.6206 36.2198 83.7371 35.3872C83.8662 34.4756 83.2314 33.6347 82.3197 33.5057L82.0575 33.4703L97.7197 24.4268C98.2359 24.1292 98.5522 23.5797 98.5522 22.9844V12.4736C101.248 11.7409 103.235 9.27244 103.235 6.34814C103.235 2.84938 100.388 0 96.8872 0C93.3863 0 90.539 2.84938 90.539 6.34814C90.539 9.27244 92.5267 11.7409 95.2221 12.4736V22.0228L80.3924 30.5855L80.4923 30.3399C80.8378 29.4866 80.4257 28.5167 79.5723 28.1712C78.7211 27.8277 77.7491 28.2398 77.4057 29.0911L75.4929 33.822C75.3014 34.2966 75.3368 34.8357 75.5949 35.279C75.8509 35.7223 76.2963 36.0241 76.8041 36.0949ZM93.8692 6.34814C93.8692 4.68513 95.2242 3.33017 96.8872 3.33017C98.5502 3.33017 99.9051 4.68513 99.9051 6.34814C99.9051 8.01114 98.5522 9.36611 96.8872 9.36611C95.2221 9.36611 93.8692 8.01322 93.8692 6.34814ZM26.4311 67.1404L21.3776 66.4327C20.466 66.3016 19.6251 66.9385 19.4981 67.8502C19.3712 68.7597 20.006 69.6027 20.9156 69.7296L21.1778 69.7671L5.5156 78.8085C5.0015 79.1061 4.68305 79.6556 4.68305 80.2509V90.7617C1.9877 91.4964 0 93.9629 0 96.8872C0 100.388 2.8473 103.235 6.34814 103.235C9.84898 103.235 12.6963 100.388 12.6963 96.8872C12.6963 93.9629 10.7086 91.4964 8.01322 90.7617V81.2125L22.8429 72.6518L22.743 72.8974C22.3996 73.7487 22.8117 74.7186 23.6629 75.0641C23.8669 75.1474 24.0792 75.1869 24.2874 75.1869C24.9451 75.1869 25.5695 74.7936 25.8317 74.1442L27.7445 69.4153C27.936 68.9387 27.8985 68.4017 27.6425 67.9584C27.3865 67.513 26.939 67.2132 26.4311 67.1404ZM9.36611 96.8872C9.36611 98.5522 8.01322 99.9051 6.34814 99.9051C4.68305 99.9051 3.33017 98.5522 3.33017 96.8872C3.33017 95.2221 4.68513 93.8692 6.34814 93.8692C8.01114 93.8692 9.36611 95.2242 9.36611 96.8872ZM98.5522 90.7617V80.2509C98.5522 79.6556 98.2359 79.1061 97.7197 78.8085L82.0575 69.7671L82.3197 69.7296C83.2314 69.6027 83.8662 68.7597 83.7371 67.8502C83.6102 66.9385 82.7693 66.3037 81.8577 66.4327L76.8041 67.1404C76.2963 67.2132 75.8509 67.513 75.5949 67.9584C75.3368 68.4017 75.3014 68.9387 75.4929 69.4132L77.4057 74.1442C77.6679 74.7936 78.2902 75.1869 78.95 75.1869C79.1561 75.1869 79.3684 75.1474 79.5723 75.0641C80.4257 74.7186 80.8378 73.7487 80.4923 72.8974L80.3924 72.6518L95.2221 81.2125V90.7617C92.5267 91.4964 90.539 93.9629 90.539 96.8872C90.539 100.388 93.3863 103.235 96.8872 103.235C100.388 103.235 103.235 100.388 103.235 96.8872C103.235 93.9629 101.248 91.4964 98.5522 90.7617ZM96.8872 99.9051C95.2242 99.9051 93.8692 98.5522 93.8692 96.8872C93.8692 95.2221 95.2242 93.8692 96.8872 93.8692C98.5502 93.8692 99.9051 95.2242 99.9051 96.8872C99.9051 98.5502 98.5522 99.9051 96.8872 99.9051Z" fill="#004D89"/>
</g>
<defs>
<clipPath id="clip0_442_736">
<rect width="103.235" height="103.235" fill="white"/>
</clipPath>
</defs>
</svg>
