<svg xmlns="http://www.w3.org/2000/svg" viewBox="152.372 0 46.628 45" fill="none">
  <path d="M175.287 0H176.239C181.438 0 186.458 1.91134 191.294 5.72766C196.431 10.7611 199 16.04 199 21.5666V23.7171C199 26.9206 197.716 30.6914 195.148 35.0232C191.967 39.3993 187.651 42.4156 182.181 44.0814C179.644 44.6941 177.524 45 175.838 45H175.698C169.37 45 163.707 42.6103 158.725 37.8235C154.492 33.1563 152.372 28.0551 152.372 22.5074C152.372 16.5861 154.771 11.1717 159.56 6.25788C164.549 2.08384 169.786 0 175.287 0ZM163.296 9.84243L173.36 22.881V22.971L163.21 33.6495H165.384L174.45 24.2854C179.255 30.4988 181.699 33.6198 181.792 33.6495H189.498L178.798 19.7304V19.6478C179.178 19.342 182.318 16.0707 188.229 9.84243H186.056L177.8 18.3334H177.623C173.561 12.9497 171.349 10.1186 171 9.84243H163.295H163.296ZM166.832 11.4183H170.19C180.766 24.9574 186.058 31.8122 186.058 31.9837H182.608C182.398 31.8344 177.084 25.0093 166.656 11.5072L166.833 11.4172L166.832 11.4183Z" fill="#7FA6C4"/>
</svg>
