<svg width="115" height="115" viewBox="0 0 115 115" fill="none" xmlns="http://www.w3.org/2000/svg">
<g clip-path="url(#clip0_442_751)">
<mask id="path-1-inside-1_442_751" fill="white">
<path d="M114.655 70.9897C114.036 70.0947 112.811 69.8675 111.916 70.4842L109.679 72.026C112.009 63.8091 112.566 55.1516 111.293 46.6704C113.178 45.5923 114.453 43.5612 114.453 41.2357C114.453 37.7834 111.643 34.9733 108.19 34.9733C104.738 34.9733 101.926 37.7834 101.926 41.2357C101.926 44.433 104.335 47.0738 107.43 47.4518C108.554 55.1099 108.082 62.9211 106.057 70.359L105.443 68.2213C105.144 67.1756 104.054 66.5728 103.009 66.8696C101.965 67.171 101.36 68.2607 101.661 69.3041L104.024 77.5465C104.198 78.154 104.657 78.6409 105.251 78.8542C105.469 78.933 105.691 78.9701 105.916 78.9701C106.308 78.9701 106.697 78.8519 107.031 78.6246L114.147 73.7255C115.042 73.1088 115.269 71.8846 114.655 70.9897ZM105.86 41.2357C105.86 39.9512 106.906 38.9102 108.19 38.9102C109.475 38.9102 110.516 39.9512 110.516 41.2357C110.516 42.5202 109.475 43.5635 108.19 43.5635C106.906 43.5635 105.86 42.5202 105.86 41.2357ZM8.94037 44.6394L9.5571 46.7817C9.80519 47.6442 10.5912 48.2076 11.4467 48.2076C11.6276 48.2076 11.8084 48.1821 11.9916 48.1288C13.0349 47.8297 13.6377 46.7423 13.3387 45.6966L10.9761 37.4565C10.7998 36.8467 10.3431 36.3598 9.74722 36.1442C9.15368 35.9309 8.48825 36.0167 7.96658 36.376L0.853272 41.2751C-0.041688 41.8919 -0.268906 43.1184 0.34551 44.0133C0.962243 44.9083 2.18876 45.1309 3.08372 44.5165L5.32112 42.9746C2.98865 51.1939 2.43452 59.8514 3.7074 68.328C1.82242 69.4084 0.547223 71.4395 0.547223 73.765C0.547223 77.2173 3.3573 80.0274 6.80962 80.0274C10.2619 80.0274 13.072 77.2173 13.072 73.765C13.072 70.57 10.6654 67.9245 7.57011 67.5512C6.44561 59.8908 6.91628 52.0819 8.94037 44.6394ZM9.13745 73.765C9.13745 75.0471 8.09178 76.0928 6.80962 76.0928C5.52747 76.0928 4.4818 75.0471 4.4818 73.765C4.4818 72.4828 5.52515 71.4371 6.80962 71.4371C8.0941 71.4371 9.13745 72.4828 9.13745 73.765ZM89.3778 21.2707H25.62C21.3423 21.2707 17.8621 24.7508 17.8621 29.0309V68.8751C17.8621 73.1529 21.3423 76.633 25.62 76.633H43.6931V81.9031H36.8441C33.037 81.9031 29.9371 84.5555 29.9371 87.8177V91.7615C29.9371 92.8489 30.8182 93.73 31.9056 93.73H83.0945C84.1819 93.73 85.063 92.8489 85.063 91.7615V87.8177C85.063 84.5555 81.9631 81.9031 78.156 81.9031H71.307V76.633H89.3778C93.6578 76.633 97.138 73.1529 97.138 68.8751V29.0309C97.138 24.7508 93.6578 21.2707 89.3778 21.2707ZM81.1261 87.8177V89.7954H33.8717V87.8177C33.8717 86.881 35.0913 85.8376 36.8441 85.8376H78.156C79.9065 85.8376 81.1261 86.881 81.1261 87.8177ZM67.3724 81.9031H47.6277V76.633H67.3724V81.9031ZM93.2034 68.8751C93.2034 70.985 91.4853 72.6984 89.3778 72.6984H25.62C23.5124 72.6984 21.7967 70.985 21.7967 68.8751V29.0309C21.7967 26.9233 23.5124 25.2053 25.62 25.2053H89.3778C91.4853 25.2053 93.2034 26.9233 93.2034 29.0309V68.8751ZM87.5322 27.1807H27.4679C25.9678 27.1807 24.7482 28.4257 24.7482 29.9583V66.3363C24.7482 67.4237 25.6293 68.3048 26.7144 68.3048H88.2834C89.3708 68.3048 90.2519 67.4237 90.2519 66.3363V29.9583C90.2519 28.4257 89.0323 27.1807 87.5322 27.1807ZM86.3173 64.3679H28.6828V31.1153H86.3173V64.3679ZM41.2354 13.0723C44.4304 13.0723 47.0735 10.6657 47.4515 7.5704C55.1096 6.44591 62.9208 6.91657 70.361 8.94298L68.2187 9.5574C67.1754 9.85649 66.5702 10.9462 66.8693 11.9919C67.1174 12.8544 67.9057 13.4155 68.7612 13.4155C68.9398 13.4155 69.1229 13.39 69.3015 13.3389L77.5439 10.9763C78.1537 10.8001 78.6406 10.3434 78.8539 9.74752C79.0695 9.15397 78.9837 8.49086 78.6243 7.96919L73.7253 0.853566C73.1085 -0.0413932 71.8843 -0.268611 70.9894 0.348123C70.0944 0.962538 69.8672 2.18905 70.4839 3.08401L72.0258 5.32373C63.8088 2.98895 55.1514 2.43482 46.6701 3.7077C45.592 1.82272 43.5609 0.547518 41.2354 0.547518C37.7831 0.547518 34.973 3.35528 34.973 6.80992C34.973 10.2646 37.7831 13.0723 41.2354 13.0723ZM41.2354 4.48209C42.5199 4.48209 43.5633 5.52776 43.5633 6.80992C43.5633 8.09207 42.5199 9.13774 41.2354 9.13774C39.951 9.13774 38.9099 8.09207 38.9099 6.80992C38.9099 5.52776 39.951 4.48209 41.2354 4.48209ZM73.7647 101.928C70.5697 101.928 67.9242 104.335 67.5486 107.43C59.8905 108.555 52.0793 108.082 44.6391 106.058L46.7814 105.443C47.8247 105.144 48.4299 104.054 48.1285 103.011C47.8294 101.965 46.7397 101.363 45.6963 101.662L37.4562 104.024C36.8464 104.198 36.3595 104.657 36.1439 105.251C35.9306 105.849 36.0164 106.51 36.3758 107.031L41.2748 114.147C41.6574 114.704 42.2718 115 42.8978 115C43.2827 115 43.6699 114.887 44.0107 114.655C44.9057 114.036 45.1306 112.812 44.5162 111.917L42.9743 109.677C48.3163 111.193 53.846 111.963 59.392 111.963C62.3736 111.963 65.3623 111.74 68.3277 111.293C69.4081 113.178 71.4392 114.453 73.7647 114.453C77.217 114.453 80.0247 111.643 80.0247 108.191C80.0247 104.738 77.217 101.928 73.7647 101.928ZM73.7647 110.516C72.4802 110.516 71.4368 109.475 71.4368 108.191C71.4368 106.906 72.4802 105.863 73.7647 105.863C75.0491 105.863 76.0902 106.906 76.0902 108.191C76.0902 109.475 75.0468 110.516 73.7647 110.516ZM42.9651 51.3701L44.3353 51.8964C44.5649 52.6128 44.8547 53.3061 45.1978 53.9761L44.5996 55.3186C44.2704 56.0605 44.4327 56.9323 45.0077 57.5073L47.6555 60.1528C48.2305 60.7301 49.0976 60.8924 49.8442 60.5608L51.1866 59.965C51.8544 60.3081 52.5523 60.5956 53.2641 60.8251L53.7927 62.1977C54.0871 62.9582 54.8152 63.4567 55.629 63.4567H59.3711C60.1849 63.4567 60.9153 62.9582 61.2074 62.1977L61.7337 60.8275C62.4502 60.5956 63.1434 60.3081 63.8135 59.965L65.1559 60.5608C65.8978 60.8924 66.7696 60.7301 67.3446 60.1528L69.9901 57.5073C70.5674 56.9323 70.7297 56.0605 70.4005 55.3186L69.8023 53.9761C70.1454 53.3061 70.4329 52.6128 70.6624 51.8964L72.035 51.3701C72.7955 51.078 73.294 50.3476 73.294 49.5338V45.7917C73.294 44.9755 72.7955 44.2452 72.035 43.9554L70.6648 43.4268C70.4329 42.7126 70.1454 42.0171 69.8023 41.3493L70.4005 40.0069C70.7297 39.2626 70.5674 38.3932 69.9901 37.8182L67.3446 35.1704C66.7696 34.5954 65.8978 34.4331 65.1559 34.7623L63.8135 35.3605C63.1434 35.0151 62.4502 34.7276 61.7337 34.5003L61.2051 33.1278C60.9153 32.3696 60.1849 31.8688 59.3711 31.8688H55.629C54.8152 31.8688 54.0825 32.3673 53.7927 33.1278L53.2641 34.5003C52.5499 34.7276 51.8544 35.0151 51.1866 35.3605L49.8442 34.7623C49.0976 34.4331 48.2305 34.5954 47.6555 35.1704L45.0077 37.8182C44.4327 38.3932 44.2704 39.2626 44.5996 40.0069L45.1978 41.3493C44.8547 42.0171 44.5649 42.7126 44.3376 43.4268L42.9651 43.9554C42.2046 44.2452 41.7061 44.9755 41.7061 45.7917V49.5338C41.7061 50.3476 42.2046 51.078 42.9651 51.3701ZM45.6407 47.1434L46.6701 46.7446C47.2752 46.5104 47.725 45.9957 47.8781 45.3651C48.1192 44.3472 48.5203 43.3781 49.0721 42.4854C49.4106 41.9313 49.457 41.2473 49.195 40.6561L48.7452 39.6452L49.4825 38.9102L50.4934 39.3577C51.0846 39.6197 51.7686 39.5756 52.3227 39.2348C53.2154 38.683 54.1845 38.2819 55.2024 38.0408C55.833 37.8901 56.3477 37.4379 56.5819 36.8328L56.9784 35.8034H58.0217L58.4182 36.8328C58.6501 37.4379 59.1671 37.8901 59.7977 38.0408C60.8156 38.2819 61.7847 38.683 62.6774 39.2348C63.2292 39.5756 63.9132 39.6197 64.5067 39.3577L65.5176 38.9102L66.2549 39.6452L65.8051 40.6538C65.5431 41.2473 65.5895 41.9313 65.928 42.4854C66.4798 43.3781 66.8809 44.3472 67.1243 45.3651C67.2727 45.9957 67.7225 46.5127 68.33 46.7446L69.3594 47.1434V48.1844L68.3277 48.5786C67.7225 48.8127 67.2704 49.3298 67.122 49.9604C66.8809 50.9783 66.4798 51.9474 65.928 52.8401C65.5895 53.3919 65.5431 54.0758 65.8051 54.6694L66.2549 55.6803L65.5176 56.4176L64.509 55.9678C63.9132 55.7035 63.2292 55.7522 62.6774 56.0907C61.7847 56.6425 60.8156 57.0436 59.7977 57.287C59.1671 57.4354 58.6501 57.8852 58.4182 58.4927L58.0217 59.5221H56.9784L56.5819 58.4904C56.3477 57.8852 55.833 57.4354 55.2024 57.287C54.1845 57.0436 53.2154 56.6425 52.3227 56.0907C51.7686 55.7522 51.0846 55.7035 50.4934 55.9678L49.4825 56.4176L48.7452 55.6803L49.195 54.6717C49.457 54.0782 49.4106 53.3919 49.0721 52.8401C48.5203 51.9474 48.1192 50.9783 47.8758 49.9604C47.725 49.3298 47.2752 48.8127 46.6678 48.5786L45.6407 48.1844V47.1434ZM57.5 56.1579C62.1835 56.1579 65.9952 52.3485 65.9952 47.6627C65.9952 42.977 62.1835 39.1676 57.5 39.1676C52.8166 39.1676 49.0049 42.9793 49.0049 47.6627C49.0049 52.3462 52.8143 56.1579 57.5 56.1579ZM57.5 43.1022C60.0134 43.1022 62.0583 45.1494 62.0583 47.6627C62.0583 50.176 60.0134 52.221 57.5 52.221C54.9867 52.221 52.9395 50.176 52.9395 47.6627C52.9395 45.1494 54.9867 43.1022 57.5 43.1022Z"/>
</mask>
<path d="M114.655 70.9897C114.036 70.0947 112.811 69.8675 111.916 70.4842L109.679 72.026C112.009 63.8091 112.566 55.1516 111.293 46.6704C113.178 45.5923 114.453 43.5612 114.453 41.2357C114.453 37.7834 111.643 34.9733 108.19 34.9733C104.738 34.9733 101.926 37.7834 101.926 41.2357C101.926 44.433 104.335 47.0738 107.43 47.4518C108.554 55.1099 108.082 62.9211 106.057 70.359L105.443 68.2213C105.144 67.1756 104.054 66.5728 103.009 66.8696C101.965 67.171 101.36 68.2607 101.661 69.3041L104.024 77.5465C104.198 78.154 104.657 78.6409 105.251 78.8542C105.469 78.933 105.691 78.9701 105.916 78.9701C106.308 78.9701 106.697 78.8519 107.031 78.6246L114.147 73.7255C115.042 73.1088 115.269 71.8846 114.655 70.9897ZM105.86 41.2357C105.86 39.9512 106.906 38.9102 108.19 38.9102C109.475 38.9102 110.516 39.9512 110.516 41.2357C110.516 42.5202 109.475 43.5635 108.19 43.5635C106.906 43.5635 105.86 42.5202 105.86 41.2357ZM8.94037 44.6394L9.5571 46.7817C9.80519 47.6442 10.5912 48.2076 11.4467 48.2076C11.6276 48.2076 11.8084 48.1821 11.9916 48.1288C13.0349 47.8297 13.6377 46.7423 13.3387 45.6966L10.9761 37.4565C10.7998 36.8467 10.3431 36.3598 9.74722 36.1442C9.15368 35.9309 8.48825 36.0167 7.96658 36.376L0.853272 41.2751C-0.041688 41.8919 -0.268906 43.1184 0.34551 44.0133C0.962243 44.9083 2.18876 45.1309 3.08372 44.5165L5.32112 42.9746C2.98865 51.1939 2.43452 59.8514 3.7074 68.328C1.82242 69.4084 0.547223 71.4395 0.547223 73.765C0.547223 77.2173 3.3573 80.0274 6.80962 80.0274C10.2619 80.0274 13.072 77.2173 13.072 73.765C13.072 70.57 10.6654 67.9245 7.57011 67.5512C6.44561 59.8908 6.91628 52.0819 8.94037 44.6394ZM9.13745 73.765C9.13745 75.0471 8.09178 76.0928 6.80962 76.0928C5.52747 76.0928 4.4818 75.0471 4.4818 73.765C4.4818 72.4828 5.52515 71.4371 6.80962 71.4371C8.0941 71.4371 9.13745 72.4828 9.13745 73.765ZM89.3778 21.2707H25.62C21.3423 21.2707 17.8621 24.7508 17.8621 29.0309V68.8751C17.8621 73.1529 21.3423 76.633 25.62 76.633H43.6931V81.9031H36.8441C33.037 81.9031 29.9371 84.5555 29.9371 87.8177V91.7615C29.9371 92.8489 30.8182 93.73 31.9056 93.73H83.0945C84.1819 93.73 85.063 92.8489 85.063 91.7615V87.8177C85.063 84.5555 81.9631 81.9031 78.156 81.9031H71.307V76.633H89.3778C93.6578 76.633 97.138 73.1529 97.138 68.8751V29.0309C97.138 24.7508 93.6578 21.2707 89.3778 21.2707ZM81.1261 87.8177V89.7954H33.8717V87.8177C33.8717 86.881 35.0913 85.8376 36.8441 85.8376H78.156C79.9065 85.8376 81.1261 86.881 81.1261 87.8177ZM67.3724 81.9031H47.6277V76.633H67.3724V81.9031ZM93.2034 68.8751C93.2034 70.985 91.4853 72.6984 89.3778 72.6984H25.62C23.5124 72.6984 21.7967 70.985 21.7967 68.8751V29.0309C21.7967 26.9233 23.5124 25.2053 25.62 25.2053H89.3778C91.4853 25.2053 93.2034 26.9233 93.2034 29.0309V68.8751ZM87.5322 27.1807H27.4679C25.9678 27.1807 24.7482 28.4257 24.7482 29.9583V66.3363C24.7482 67.4237 25.6293 68.3048 26.7144 68.3048H88.2834C89.3708 68.3048 90.2519 67.4237 90.2519 66.3363V29.9583C90.2519 28.4257 89.0323 27.1807 87.5322 27.1807ZM86.3173 64.3679H28.6828V31.1153H86.3173V64.3679ZM41.2354 13.0723C44.4304 13.0723 47.0735 10.6657 47.4515 7.5704C55.1096 6.44591 62.9208 6.91657 70.361 8.94298L68.2187 9.5574C67.1754 9.85649 66.5702 10.9462 66.8693 11.9919C67.1174 12.8544 67.9057 13.4155 68.7612 13.4155C68.9398 13.4155 69.1229 13.39 69.3015 13.3389L77.5439 10.9763C78.1537 10.8001 78.6406 10.3434 78.8539 9.74752C79.0695 9.15397 78.9837 8.49086 78.6243 7.96919L73.7253 0.853566C73.1085 -0.0413932 71.8843 -0.268611 70.9894 0.348123C70.0944 0.962538 69.8672 2.18905 70.4839 3.08401L72.0258 5.32373C63.8088 2.98895 55.1514 2.43482 46.6701 3.7077C45.592 1.82272 43.5609 0.547518 41.2354 0.547518C37.7831 0.547518 34.973 3.35528 34.973 6.80992C34.973 10.2646 37.7831 13.0723 41.2354 13.0723ZM41.2354 4.48209C42.5199 4.48209 43.5633 5.52776 43.5633 6.80992C43.5633 8.09207 42.5199 9.13774 41.2354 9.13774C39.951 9.13774 38.9099 8.09207 38.9099 6.80992C38.9099 5.52776 39.951 4.48209 41.2354 4.48209ZM73.7647 101.928C70.5697 101.928 67.9242 104.335 67.5486 107.43C59.8905 108.555 52.0793 108.082 44.6391 106.058L46.7814 105.443C47.8247 105.144 48.4299 104.054 48.1285 103.011C47.8294 101.965 46.7397 101.363 45.6963 101.662L37.4562 104.024C36.8464 104.198 36.3595 104.657 36.1439 105.251C35.9306 105.849 36.0164 106.51 36.3758 107.031L41.2748 114.147C41.6574 114.704 42.2718 115 42.8978 115C43.2827 115 43.6699 114.887 44.0107 114.655C44.9057 114.036 45.1306 112.812 44.5162 111.917L42.9743 109.677C48.3163 111.193 53.846 111.963 59.392 111.963C62.3736 111.963 65.3623 111.74 68.3277 111.293C69.4081 113.178 71.4392 114.453 73.7647 114.453C77.217 114.453 80.0247 111.643 80.0247 108.191C80.0247 104.738 77.217 101.928 73.7647 101.928ZM73.7647 110.516C72.4802 110.516 71.4368 109.475 71.4368 108.191C71.4368 106.906 72.4802 105.863 73.7647 105.863C75.0491 105.863 76.0902 106.906 76.0902 108.191C76.0902 109.475 75.0468 110.516 73.7647 110.516ZM42.9651 51.3701L44.3353 51.8964C44.5649 52.6128 44.8547 53.3061 45.1978 53.9761L44.5996 55.3186C44.2704 56.0605 44.4327 56.9323 45.0077 57.5073L47.6555 60.1528C48.2305 60.7301 49.0976 60.8924 49.8442 60.5608L51.1866 59.965C51.8544 60.3081 52.5523 60.5956 53.2641 60.8251L53.7927 62.1977C54.0871 62.9582 54.8152 63.4567 55.629 63.4567H59.3711C60.1849 63.4567 60.9153 62.9582 61.2074 62.1977L61.7337 60.8275C62.4502 60.5956 63.1434 60.3081 63.8135 59.965L65.1559 60.5608C65.8978 60.8924 66.7696 60.7301 67.3446 60.1528L69.9901 57.5073C70.5674 56.9323 70.7297 56.0605 70.4005 55.3186L69.8023 53.9761C70.1454 53.3061 70.4329 52.6128 70.6624 51.8964L72.035 51.3701C72.7955 51.078 73.294 50.3476 73.294 49.5338V45.7917C73.294 44.9755 72.7955 44.2452 72.035 43.9554L70.6648 43.4268C70.4329 42.7126 70.1454 42.0171 69.8023 41.3493L70.4005 40.0069C70.7297 39.2626 70.5674 38.3932 69.9901 37.8182L67.3446 35.1704C66.7696 34.5954 65.8978 34.4331 65.1559 34.7623L63.8135 35.3605C63.1434 35.0151 62.4502 34.7276 61.7337 34.5003L61.2051 33.1278C60.9153 32.3696 60.1849 31.8688 59.3711 31.8688H55.629C54.8152 31.8688 54.0825 32.3673 53.7927 33.1278L53.2641 34.5003C52.5499 34.7276 51.8544 35.0151 51.1866 35.3605L49.8442 34.7623C49.0976 34.4331 48.2305 34.5954 47.6555 35.1704L45.0077 37.8182C44.4327 38.3932 44.2704 39.2626 44.5996 40.0069L45.1978 41.3493C44.8547 42.0171 44.5649 42.7126 44.3376 43.4268L42.9651 43.9554C42.2046 44.2452 41.7061 44.9755 41.7061 45.7917V49.5338C41.7061 50.3476 42.2046 51.078 42.9651 51.3701ZM45.6407 47.1434L46.6701 46.7446C47.2752 46.5104 47.725 45.9957 47.8781 45.3651C48.1192 44.3472 48.5203 43.3781 49.0721 42.4854C49.4106 41.9313 49.457 41.2473 49.195 40.6561L48.7452 39.6452L49.4825 38.9102L50.4934 39.3577C51.0846 39.6197 51.7686 39.5756 52.3227 39.2348C53.2154 38.683 54.1845 38.2819 55.2024 38.0408C55.833 37.8901 56.3477 37.4379 56.5819 36.8328L56.9784 35.8034H58.0217L58.4182 36.8328C58.6501 37.4379 59.1671 37.8901 59.7977 38.0408C60.8156 38.2819 61.7847 38.683 62.6774 39.2348C63.2292 39.5756 63.9132 39.6197 64.5067 39.3577L65.5176 38.9102L66.2549 39.6452L65.8051 40.6538C65.5431 41.2473 65.5895 41.9313 65.928 42.4854C66.4798 43.3781 66.8809 44.3472 67.1243 45.3651C67.2727 45.9957 67.7225 46.5127 68.33 46.7446L69.3594 47.1434V48.1844L68.3277 48.5786C67.7225 48.8127 67.2704 49.3298 67.122 49.9604C66.8809 50.9783 66.4798 51.9474 65.928 52.8401C65.5895 53.3919 65.5431 54.0758 65.8051 54.6694L66.2549 55.6803L65.5176 56.4176L64.509 55.9678C63.9132 55.7035 63.2292 55.7522 62.6774 56.0907C61.7847 56.6425 60.8156 57.0436 59.7977 57.287C59.1671 57.4354 58.6501 57.8852 58.4182 58.4927L58.0217 59.5221H56.9784L56.5819 58.4904C56.3477 57.8852 55.833 57.4354 55.2024 57.287C54.1845 57.0436 53.2154 56.6425 52.3227 56.0907C51.7686 55.7522 51.0846 55.7035 50.4934 55.9678L49.4825 56.4176L48.7452 55.6803L49.195 54.6717C49.457 54.0782 49.4106 53.3919 49.0721 52.8401C48.5203 51.9474 48.1192 50.9783 47.8758 49.9604C47.725 49.3298 47.2752 48.8127 46.6678 48.5786L45.6407 48.1844V47.1434ZM57.5 56.1579C62.1835 56.1579 65.9952 52.3485 65.9952 47.6627C65.9952 42.977 62.1835 39.1676 57.5 39.1676C52.8166 39.1676 49.0049 42.9793 49.0049 47.6627C49.0049 52.3462 52.8143 56.1579 57.5 56.1579ZM57.5 43.1022C60.0134 43.1022 62.0583 45.1494 62.0583 47.6627C62.0583 50.176 60.0134 52.221 57.5 52.221C54.9867 52.221 52.9395 50.176 52.9395 47.6627C52.9395 45.1494 54.9867 43.1022 57.5 43.1022Z" fill="#004D89" stroke="white" stroke-width="0.6" mask="url(#path-1-inside-1_442_751)"/>
</g>
<defs>
<clipPath id="clip0_442_751">
<rect width="115" height="115" fill="white"/>
</clipPath>
</defs>
</svg>
