<svg width="44" height="44" viewBox="0 0 44 44" fill="none" xmlns="http://www.w3.org/2000/svg">
    <g filter="url(#filter0_d_339_289)">
        <path
            d="M2 21C2 9.95431 10.9543 1 22 1V1C33.0457 1 42 9.95431 42 21V21C42 32.0457 33.0457 41 22 41V41C10.9543 41 2 32.0457 2 21V21Z"
            fill="white" />
    </g>
    <g clip-path="url(#clip0_339_289)">
        <path
            d="M34.3265 23.4395C34.4508 23.4688 34.5751 23.4834 34.6995 23.4834C34.8823 23.4834 35.0725 23.4541 35.2481 23.3883C35.5406 23.2786 35.7966 23.0884 35.9868 22.8397C36.177 22.5764 36.2867 22.2546 36.294 21.9254L36.3086 20.4626C36.3086 20.3309 36.4184 20.2212 36.55 20.2285C36.6817 20.2285 36.7914 20.3382 36.7841 20.4699L36.7694 21.9327C36.7694 22.357 36.6232 22.7812 36.3672 23.125C36.1258 23.4541 35.7893 23.7028 35.409 23.8418C35.1822 23.9222 34.9409 23.9661 34.6995 23.9661C34.5386 23.9661 34.3703 23.9442 34.2167 23.9076C34.0851 23.8784 34.0119 23.7467 34.0412 23.6224C34.0705 23.4907 34.2021 23.4176 34.3265 23.4468V23.4395Z"
            fill="#004D89" stroke="#004D89" stroke-linecap="round" stroke-linejoin="round" />
        <path
            d="M34.3265 17.6173C34.4508 17.588 34.5751 17.5734 34.6995 17.5734C34.8823 17.5734 35.0725 17.6026 35.2481 17.6685C35.5406 17.7782 35.7966 17.9684 35.9868 18.217C36.177 18.4804 36.2867 18.8022 36.294 19.1313L36.3086 20.5942C36.3086 20.7259 36.4184 20.8356 36.55 20.8283C36.6817 20.8283 36.7914 20.7186 36.7841 20.5869L36.7694 19.124C36.7694 18.6998 36.6232 18.2756 36.3672 17.9318C36.1258 17.6026 35.7893 17.354 35.409 17.215C35.1822 17.1345 34.9409 17.0906 34.6995 17.0906C34.5386 17.0906 34.3703 17.1126 34.2167 17.1492C34.0851 17.1784 34.0119 17.3101 34.0412 17.4344C34.0705 17.5661 34.2021 17.6392 34.3265 17.61V17.6173Z"
            fill="#004D89" stroke="#004D89" stroke-width="0.68" stroke-linecap="round"
            stroke-linejoin="round" />
        <path
            d="M16.0112 7.44301C15.9015 8.53284 14.9214 9.33011 13.8315 9.22039C12.7417 9.11068 11.9444 8.13055 12.0542 7.04072C12.1639 5.95088 13.144 5.15361 14.2338 5.26333C15.3237 5.37304 16.1209 6.35317 16.0112 7.44301ZM15.5358 7.39181C15.6236 6.55797 15.0165 5.81922 14.1826 5.73145C13.3488 5.64368 12.6101 6.25077 12.5223 7.07729C12.4345 7.91112 13.0416 8.64987 13.8754 8.73765C14.7093 8.82542 15.448 8.21833 15.5358 7.39181Z"
            fill="#004D89" stroke="#004D89" stroke-width="0.68" stroke-linecap="round"
            stroke-linejoin="round" />
        <path
            d="M31.9932 7.44301C31.8834 8.53284 30.9033 9.33011 29.8135 9.22039C28.7236 9.11068 27.9264 8.13055 28.0361 7.04072C28.1458 5.95088 29.1259 5.15361 30.2158 5.26333C31.3056 5.37304 32.1029 6.35317 31.9932 7.44301ZM31.5177 7.39181C31.6055 6.55797 30.9984 5.81922 30.1646 5.73145C29.3307 5.64368 28.592 6.25077 28.5042 7.07729C28.4164 7.91112 29.0235 8.64987 29.8574 8.73765C30.6912 8.82542 31.43 8.21833 31.5177 7.39181Z"
            fill="#004D89" stroke="#004D89" stroke-width="0.68" stroke-linecap="round"
            stroke-linejoin="round" />
        <path
            d="M9.50145 21.1428L9.54534 18.5827C9.58923 16.6005 10.5035 14.6622 11.9883 13.3603C13.2464 12.2631 14.8994 11.6268 16.5744 11.5975L22.0383 11.6195C22.1699 11.6195 22.2796 11.7292 22.2796 11.8609C22.2796 11.9925 22.1699 12.1022 22.0383 12.1022L16.5744 12.0803C15.0165 12.1022 13.4658 12.6947 12.2955 13.7187C10.9058 14.9329 10.0573 16.7468 10.0135 18.5901L9.96957 21.1501C9.96957 21.2817 9.85986 21.3841 9.7282 21.3841C9.59654 21.3841 9.49414 21.2744 9.49414 21.1428H9.50145Z"
            fill="#004D89" stroke="#004D89" stroke-linecap="round" stroke-linejoin="round" />
        <path
            d="M34.5239 19.9067L34.48 22.4667C34.4361 24.4489 33.5218 26.3872 32.037 27.6891C30.779 28.7863 29.1259 29.4226 27.4509 29.4519L21.9871 29.4299C21.8554 29.4299 21.7457 29.3202 21.7457 29.1886C21.7457 29.0569 21.8554 28.9472 21.9871 28.9472L27.4509 28.9691C29.0089 28.9472 30.5522 28.3547 31.7298 27.3307C33.1195 26.1165 33.968 24.3026 34.0119 22.4594L34.0558 19.8993C34.0558 19.7677 34.1655 19.6653 34.2972 19.6653C34.4288 19.6653 34.5312 19.775 34.5312 19.9067H34.5239Z"
            fill="#004D89" stroke="#004D89" stroke-linecap="round" stroke-linejoin="round" />
        <path
            d="M34.5239 21.1428L34.48 18.5827C34.4361 16.6005 33.5218 14.6622 32.037 13.3603C30.779 12.2631 29.1259 11.6268 27.4509 11.5975L21.9871 11.6195C21.8554 11.6195 21.7457 11.7292 21.7457 11.8609C21.7457 11.9925 21.8554 12.1022 21.9871 12.1022L27.4509 12.0803C29.0089 12.1022 30.5522 12.6947 31.7298 13.7187C33.1195 14.9329 33.968 16.7468 34.0119 18.5901L34.0558 21.1501C34.0558 21.2817 34.1655 21.3841 34.2972 21.3841C34.4288 21.3841 34.5312 21.2744 34.5312 21.1428H34.5239Z"
            fill="#004D89" stroke="#004D89" stroke-linecap="round" stroke-linejoin="round" />
        <path
            d="M9.50145 19.9067L9.54534 22.4667C9.58923 24.4489 10.5035 26.3872 11.9883 27.6891C13.2464 28.7863 14.8994 29.4226 16.5744 29.4519L22.0383 29.4299C22.1699 29.4299 22.2796 29.3202 22.2796 29.1886C22.2796 29.0569 22.1699 28.9472 22.0383 28.9472L16.5744 28.9691C15.0165 28.9472 13.4658 28.3547 12.2955 27.3307C10.9058 26.1165 10.0573 24.3026 10.0135 22.4594L9.96957 19.8993C9.96957 19.7677 9.85986 19.6653 9.7282 19.6653C9.59654 19.6653 9.49414 19.775 9.49414 19.9067H9.50145Z"
            fill="#004D89" stroke="#004D89" stroke-linecap="round" stroke-linejoin="round" />
        <path
            d="M9.69893 17.6173C9.57459 17.588 9.45025 17.5734 9.3259 17.5734C9.14304 17.5734 8.95287 17.6026 8.77733 17.6685C8.48475 17.7782 8.22875 17.9684 8.03858 18.217C7.8484 18.4804 7.73869 18.8022 7.73137 19.1313L7.71675 20.5942C7.71675 20.7259 7.60703 20.8356 7.47537 20.8283C7.34371 20.8283 7.234 20.7186 7.24131 20.5869H7.24863L7.26326 19.124C7.26326 18.6998 7.40954 18.2756 7.66555 17.9318C7.90692 17.6026 8.24338 17.354 8.62372 17.215C8.85047 17.1345 9.09184 17.0906 9.33322 17.0906C9.49413 17.0906 9.66236 17.1126 9.81596 17.1492C9.94762 17.1784 10.0208 17.3101 9.99151 17.4344C9.96225 17.5661 9.83059 17.6392 9.70625 17.61L9.69893 17.6173Z"
            fill="#004D89" stroke="#004D89" stroke-width="0.68" stroke-linecap="round"
            stroke-linejoin="round" />
        <path
            d="M9.69893 23.4395C9.57459 23.4688 9.45025 23.4834 9.3259 23.4834C9.14304 23.4834 8.95287 23.4541 8.77733 23.3883C8.48475 23.2786 8.22875 23.0884 8.03858 22.8397C7.8484 22.5764 7.73869 22.2546 7.73137 21.9254L7.71675 20.4626C7.71675 20.3309 7.60703 20.2212 7.47537 20.2285C7.34371 20.2285 7.234 20.3382 7.24131 20.4699L7.25594 21.9327C7.25594 22.357 7.40223 22.7812 7.65823 23.125C7.8996 23.4541 8.23606 23.7028 8.61641 23.8418C8.84316 23.9222 9.08453 23.9661 9.3259 23.9661C9.48682 23.9661 9.65505 23.9442 9.80865 23.9076C9.94031 23.8784 10.0135 23.7467 9.98419 23.6224C9.95494 23.4907 9.82328 23.4176 9.69893 23.4468V23.4395Z"
            fill="#004D89" stroke="#004D89" stroke-linecap="round" stroke-linejoin="round" />
        <path
            d="M13.9998 8.90588C13.8681 8.90588 13.7584 9.0156 13.7584 9.14726V12.2339V12.5265C13.7584 12.6069 13.795 12.6728 13.8535 12.7167C13.9779 12.6581 14.1022 12.6069 14.2339 12.5557C14.2339 12.5557 14.2339 12.5411 14.2339 12.5265V12.0437V9.22772V9.15457C14.2339 9.02291 14.1241 8.9132 13.9925 8.9132L13.9998 8.90588Z"
            fill="#004D89" stroke="#004D89" stroke-width="0.68" stroke-linecap="round"
            stroke-linejoin="round" />
        <path
            d="M30.0256 8.90587C29.8939 8.90587 29.7842 9.01559 29.7842 9.14725V9.22039V12.0437V12.5265C29.7842 12.5338 29.7842 12.5411 29.7842 12.5557C29.9158 12.6069 30.0402 12.6581 30.1645 12.7167C30.223 12.6728 30.2596 12.6069 30.2596 12.5265V12.2339V9.21308V9.13993C30.2596 9.00827 30.1499 8.89856 30.0182 8.89856L30.0256 8.90587Z"
            fill="#004D89" stroke="#004D89" stroke-width="0.68" stroke-linecap="round"
            stroke-linejoin="round" />
        <path
            d="M19.4344 23.6004L19.5514 23.7906V23.7759L19.6684 23.9588V23.9442L19.8001 24.1197L19.7855 24.1051L19.9391 24.266L19.9244 24.2514L20.0927 24.405L20.078 24.3904L20.2536 24.5293H20.2389L20.4218 24.6464H20.4072L20.6047 24.7488H20.59L20.7948 24.8365H20.7802L20.9923 24.917H20.9777L21.1898 24.9828H21.1752L21.3946 25.034H21.38L21.5994 25.0706H21.5848L21.8115 25.0925H21.7969H22.0237H22.009L22.2358 25.0852H22.2211L22.4479 25.056H22.4333L22.66 25.0121H22.6454L22.8648 24.9536H22.8502L23.0696 24.8804H23.055L23.2671 24.7926H23.2525L23.4573 24.6902H23.4426L23.6401 24.5805H23.6255L23.8084 24.4562H23.7937L23.9693 24.3172L23.9546 24.3318L24.1156 24.1709L24.1009 24.1856L24.2545 24.01L24.2399 24.0246L24.3789 23.8418V23.8564L24.4959 23.6662V23.6809L24.5983 23.4834C24.6641 23.3663 24.8104 23.3298 24.9201 23.3883C25.0372 23.4541 25.0737 23.6004 25.0152 23.7101L24.9055 23.9076C24.9055 23.9076 24.9055 23.9149 24.8982 23.9222L24.7738 24.1124C24.7738 24.1124 24.7738 24.1197 24.7665 24.127L24.6276 24.3099C24.6276 24.3099 24.6276 24.3172 24.6129 24.3245L24.4593 24.4928C24.4593 24.4928 24.452 24.5001 24.4447 24.5074L24.2838 24.6683C24.2838 24.6683 24.2765 24.6756 24.2692 24.6829L24.0936 24.8292C24.0936 24.8292 24.0863 24.8292 24.079 24.8365L23.8961 24.9682C23.8961 24.9682 23.8888 24.9682 23.8815 24.9755L23.684 25.0998C23.684 25.0998 23.6767 25.0998 23.6694 25.1072L23.4646 25.2169C23.4646 25.2169 23.4573 25.2169 23.4499 25.2242L23.2378 25.312C23.2378 25.312 23.2305 25.312 23.2232 25.312L23.0038 25.3851C23.0038 25.3851 22.9965 25.3851 22.9891 25.3851L22.7697 25.4436H22.7551L22.5283 25.4875H22.5137L22.287 25.5168H22.2723H22.0456L22.031 25.5241H21.8042H21.7896L21.5628 25.5021H21.5482L21.3288 25.4656H21.3142L21.0947 25.4144C21.0947 25.4144 21.0874 25.4144 21.0801 25.4144L20.868 25.3485C20.868 25.3485 20.8607 25.3485 20.8534 25.3485L20.6412 25.2608C20.6412 25.2608 20.6339 25.2608 20.6266 25.2608L20.4218 25.1584C20.4218 25.1584 20.4145 25.1584 20.4072 25.151L20.2097 25.0413C20.2097 25.0413 20.2024 25.0413 20.1951 25.034L20.0122 24.9097C20.0122 24.9097 20.0049 24.9097 19.9976 24.9024L19.822 24.7634C19.822 24.7634 19.8147 24.7634 19.8074 24.7488L19.6392 24.5952C19.6392 24.5952 19.6319 24.5878 19.6245 24.5805L19.4709 24.4196C19.4709 24.4196 19.4636 24.4123 19.4563 24.405L19.3173 24.2294C19.3173 24.2294 19.3173 24.2221 19.31 24.2148L19.1784 24.032C19.1784 24.032 19.1784 24.0246 19.1711 24.0173L19.054 23.8271C18.9882 23.7174 19.0248 23.5638 19.1345 23.498C19.2442 23.4322 19.3978 23.4687 19.4636 23.5785L19.4344 23.6004Z"
            fill="#004D89" stroke="#004D89" stroke-linecap="round" stroke-linejoin="round" />
        <path
            d="M18.6225 18.751C18.6225 19.6433 18.1397 20.3675 17.5473 20.3675C16.9548 20.3675 16.472 19.6433 16.472 18.751C16.472 17.8586 16.9548 17.1345 17.5473 17.1345C18.1397 17.1345 18.6225 17.8586 18.6225 18.751Z"
            fill="#004D89" stroke="#004D89" stroke-width="0.68" stroke-linecap="round"
            stroke-linejoin="round" />
        <path
            d="M27.5534 18.7144C27.5534 19.6068 27.0706 20.3309 26.4782 20.3309C25.8857 20.3309 25.403 19.6068 25.403 18.7144C25.403 17.8221 25.8857 17.098 26.4782 17.098C27.0706 17.098 27.5534 17.8221 27.5534 18.7144Z"
            fill="#004D89" stroke="#004D89" stroke-width="0.68" stroke-linecap="round"
            stroke-linejoin="round" />
        <path
            d="M11.63 36.4976C11.7031 35.576 12.025 34.669 12.5809 33.9303C13.444 32.7746 14.8483 32.0432 16.2819 31.9847L27.1364 31.8676C28.2701 31.8969 29.3819 32.2992 30.2816 32.9794C31.1813 33.667 31.8542 34.6398 32.1833 35.7223C32.2565 35.971 32.3077 36.2343 32.3515 36.4976H32.8343C32.7904 36.1904 32.7319 35.8832 32.6441 35.5907C32.2857 34.413 31.5543 33.3525 30.5742 32.6064C29.594 31.8603 28.3799 31.4288 27.151 31.3922C27.151 31.3922 27.151 31.3922 27.1437 31.3922L16.2819 31.5092C14.702 31.5678 13.166 32.3723 12.2151 33.645C11.6007 34.4716 11.2423 35.4736 11.1692 36.5049H11.6446L11.63 36.4976Z"
            fill="white" stroke="#004D89" stroke-linecap="round" stroke-linejoin="round" />
    </g>
    <defs>
        <filter id="filter0_d_339_289" x="0" y="0" width="44" height="44"
            filterUnits="userSpaceOnUse" color-interpolation-filters="sRGB">
            <feFlood flood-opacity="0" result="BackgroundImageFix" />
            <feColorMatrix in="SourceAlpha" type="matrix"
                values="0 0 0 0 0 0 0 0 0 0 0 0 0 0 0 0 0 0 127 0" result="hardAlpha" />
            <feOffset dy="1" />
            <feGaussianBlur stdDeviation="1" />
            <feComposite in2="hardAlpha" operator="out" />
            <feColorMatrix type="matrix" values="0 0 0 0 0 0 0 0 0 0 0 0 0 0 0 0 0 0 0.05 0" />
            <feBlend mode="normal" in2="BackgroundImageFix" result="effect1_dropShadow_339_289" />
            <feBlend mode="normal" in="SourceGraphic" in2="effect1_dropShadow_339_289"
                result="shape" />
        </filter>
        <clipPath id="clip0_339_289">
            <rect width="30.0254" height="30.808" fill="white" transform="translate(7 5)" />
        </clipPath>
    </defs>
</svg>
