<svg width="32" height="32" viewBox="0 0 32 32" fill="none" xmlns="http://www.w3.org/2000/svg">
  <path d="M20.5 25.5V21.75C20.5 20.65 20.08 19.73 19.24 18.98C22.73 18.65 25.04 17.63 26.16 15.93C26.84 14.91 27.18 13.62 27.18 12.04C27.18 10.78 26.8 9.61 26.02 8.54C26.24 7.69 26.3 6.85 26.2 6C25.01 6.07 23.75 6.61 22.43 7.62C21.15 7.29 19.94 7.12 18.8 7.12H13.2C12.06 7.12 10.85 7.29 9.57 7.62C8.25 6.61 6.99 6.07 5.8 6C5.7 6.85 5.76 7.69 5.98 8.54C5.2 9.61 4.82 10.78 4.82 12.04C4.82 14.42 5.57 16.29 7.09 17.64C8.31 18.7 10.2 19.48 12.76 19.98C11.92 20.73 11.5 21.65 11.5 22.75V25.5" stroke="#004D89" stroke-width="1.75" stroke-linecap="round" stroke-linejoin="round"/>
  <path d="M11.5 23.35C10.88 23.64 10.23 23.79 9.55 23.79C8.39 23.79 7.35 23.07 6.43 21.64C5.93 20.87 5.31 20.48 4.57 20.48" stroke="#004D89" stroke-width="1.75" stroke-linecap="round" stroke-linejoin="round"/>
  <circle cx="11.05" cy="12.42" r="1.05" fill="#004D89"/>
  <circle cx="20.95" cy="12.42" r="1.05" fill="#004D89"/>
</svg>
