<svg width="44" height="44" viewBox="0 0 44 44" fill="none" xmlns="http://www.w3.org/2000/svg">
    <g filter="url(#filter0_d_339_280)">
        <path
            d="M2 21C2 9.95431 10.9543 1 22 1V1C33.0457 1 42 9.95431 42 21V21C42 32.0457 33.0457 41 22 41V41C10.9543 41 2 32.0457 2 21V21Z"
            fill="white" />
    </g>
    <path
        d="M27.2912 39L26.8492 38.3921V33.2305C26.7988 32.605 26.4519 31.8451 25.814 30.9507C28.4662 30.4772 30.3966 29.6823 31.5996 28.5482C33.1999 26.8355 34 24.5967 34 21.8259V20.382C33.8825 19.2363 33.3901 17.962 32.5284 16.5415C32.4165 16.5415 32.299 16.4129 32.1759 16.1674C32.4109 15.4017 32.5284 14.7177 32.5284 14.1157V13.8818C32.3606 11.9587 32.092 11 31.7339 11C30.4917 11 28.9026 11.6781 26.9555 13.0401C25.344 12.6426 24.2081 12.4322 23.5423 12.4322H21.058C20.6607 12.4322 19.5584 12.6367 17.7511 13.0401C15.9103 11.6839 14.2876 11.0058 12.872 11.0058C12.553 11.5144 12.3236 12.5081 12.1893 14.0046V14.2559C12.4076 15.4543 12.5195 16.0856 12.5195 16.1674C11.3165 17.8568 10.7122 19.6514 10.7122 21.5687C10.7122 25.4735 12.0774 28.1624 14.808 29.6121C15.6752 30.1733 16.923 30.5766 18.5457 30.8221H18.8814V31.056C18.4505 31.5704 18.0756 32.4004 17.7567 33.5695C17.0965 33.815 16.3411 33.9436 15.4906 33.9436H15.3563C14.254 33.9436 13.1238 32.9441 11.9655 30.9449C11.143 30.2142 10.3485 29.8518 9.57073 29.8518L9 30.1031C9 30.3253 9.57073 30.9624 10.7122 32.0146C10.9696 32.3303 11.5011 33.324 12.3013 35.0134C13.1238 35.896 14.4163 36.3403 16.1732 36.3403C16.6432 36.2643 17.1748 36.2292 17.7623 36.2292L17.8742 36.463V38.7428"
        stroke="#004D89" stroke-width="1.35" stroke-linecap="round" stroke-linejoin="round" />
    <defs>
        <filter id="filter0_d_339_280" x="0" y="0" width="44" height="44"
            filterUnits="userSpaceOnUse" color-interpolation-filters="sRGB">
            <feFlood flood-opacity="0" result="BackgroundImageFix" />
            <feColorMatrix in="SourceAlpha" type="matrix"
                values="0 0 0 0 0 0 0 0 0 0 0 0 0 0 0 0 0 0 127 0" result="hardAlpha" />
            <feOffset dy="1" />
            <feGaussianBlur stdDeviation="1" />
            <feComposite in2="hardAlpha" operator="out" />
            <feColorMatrix type="matrix" values="0 0 0 0 0 0 0 0 0 0 0 0 0 0 0 0 0 0 0.05 0" />
            <feBlend mode="normal" in2="BackgroundImageFix" result="effect1_dropShadow_339_280" />
            <feBlend mode="normal" in="SourceGraphic" in2="effect1_dropShadow_339_280"
                result="shape" />
        </filter>
    </defs>
</svg>
