<svg width="240" height="209" viewBox="0 0 240 209" fill="none" xmlns="http://www.w3.org/2000/svg">
    <g clip-path="url(#clip0_339_151)">
        <mask id="mask0_339_151" style="mask-type:luminance" maskUnits="userSpaceOnUse" x="-1" y="0"
            width="150" height="209">
            <path
                d="M92.4044 174.727C91.1957 175.936 91.1957 177.898 92.4044 179.11C93.6131 180.319 95.5747 180.319 96.7869 179.11C97.9956 177.901 97.9956 175.94 96.7869 174.727C96.1826 174.123 95.3909 173.819 94.5956 173.819C93.8004 173.819 93.0088 174.123 92.4044 174.727ZM106.63 175.83C106.63 177.17 107.153 178.382 108.005 179.28C109.613 180.98 110.535 183.213 110.535 185.557V190.922C110.535 193.541 109.38 196.004 107.415 197.736C106.079 198.913 105.234 200.634 105.234 202.557C105.234 206.109 108.107 208.989 111.656 209H111.702C112.257 209 112.826 208.926 113.402 208.777C115.611 208.201 117.395 206.367 117.926 204.147C118.512 201.691 117.696 199.401 116.116 197.902C114.154 196.04 112.815 193.619 112.815 190.911V185.56C112.815 183.217 113.737 180.987 115.346 179.283C116.197 178.382 116.72 177.17 116.72 175.834C116.72 173.049 114.462 170.79 111.677 170.79C108.892 170.79 106.633 173.049 106.633 175.834M117.031 162.711C117.031 165.584 119.36 167.91 122.23 167.91C125.1 167.91 127.429 165.581 127.429 162.711C127.429 159.841 125.1 157.512 122.23 157.512C119.36 157.512 117.031 159.841 117.031 162.711ZM55.5664 156.444C54.6192 157.391 54.1315 158.618 54.0997 159.855C54.0361 162.195 53.1065 164.425 51.4525 166.082L47.6566 169.875C45.8047 171.727 43.2458 172.653 40.6305 172.487C38.8527 172.374 37.0396 172.992 35.6789 174.353C32.7666 177.265 33.2261 182.277 37.0608 184.525C39.0294 185.68 41.5883 185.645 43.5321 184.45C45.681 183.129 46.7236 180.93 46.667 178.753C46.5963 176.046 47.3598 173.388 49.2753 171.476L53.0606 167.691C54.7182 166.033 56.9483 165.107 59.288 165.04C60.525 165.004 61.755 164.517 62.6986 163.573C64.6672 161.604 64.6672 158.409 62.6986 156.441C61.7125 155.455 60.4225 154.963 59.1325 154.963C57.8425 154.963 56.5525 155.455 55.5664 156.441M72.1988 154.522C70.1666 156.554 70.1666 159.844 72.1988 161.877C74.231 163.905 77.5215 163.905 79.5537 161.877C81.5859 159.844 81.5859 156.554 79.5537 154.522C78.5393 153.507 77.2069 152.998 75.878 152.998C74.5491 152.998 73.2167 153.507 72.2023 154.522M43.1928 148.708C43.1928 150.418 44.5783 151.804 46.2889 151.804C47.9995 151.804 49.3884 150.415 49.3884 148.708C49.3884 147.001 47.9995 145.612 46.2889 145.612C44.5783 145.612 43.1928 146.997 43.1928 148.708ZM98.6919 147.633C97.264 149.061 96.5289 150.909 96.4759 152.776C96.3769 156.306 94.9774 159.668 92.4821 162.166L81.8792 172.769C79.0871 175.562 75.2242 176.958 71.2834 176.707C68.6044 176.537 65.8689 177.47 63.819 179.52C59.4259 183.913 60.1186 191.466 65.9007 194.863C68.866 196.605 72.7289 196.552 75.6624 194.753C78.9069 192.76 80.4761 189.448 80.3913 186.165C80.2853 182.086 81.4375 178.074 84.3214 175.19L94.9102 164.602C97.409 162.106 100.77 160.707 104.301 160.608C106.167 160.555 108.019 159.82 109.447 158.395C112.416 155.426 112.416 150.609 109.447 147.64C107.962 146.156 106.015 145.414 104.071 145.414C102.127 145.414 100.18 146.156 98.6954 147.64M13.3103 141.102C14.1762 144.431 16.9436 147.124 20.2906 147.927C23.991 148.81 27.4475 147.577 29.7059 145.194C32.5157 142.233 36.1666 140.215 40.2452 140.215H55.2236C58.7543 140.215 62.1225 141.604 64.6884 144.032C66.0456 145.315 67.8728 146.103 69.8909 146.103C74.0897 146.103 77.4932 142.699 77.4932 138.497C77.4932 134.295 74.0897 130.891 69.8909 130.891C67.8728 130.891 66.0456 131.679 64.6884 132.962C62.1225 135.39 58.7543 136.779 55.2236 136.779H40.2276C36.2797 136.779 32.5617 135.037 29.9533 132.071C28.1791 130.057 25.585 128.781 22.6833 128.781C16.47 128.781 11.6209 134.613 13.3068 141.102M41.0899 122.232C41.0899 125.105 43.419 127.431 46.2889 127.431C49.1587 127.431 51.4878 125.102 51.4878 122.232C51.4878 119.362 49.1587 117.033 46.2889 117.033C43.419 117.033 41.0899 119.362 41.0899 122.232ZM0.000177364 111.654V111.696C0.000177364 112.251 0.0743976 112.823 0.222838 113.399C0.798929 115.608 2.63323 117.393 4.85277 117.923C7.30557 118.51 9.59933 117.69 11.0979 116.114C12.9604 114.149 15.3814 112.809 18.0887 112.809H23.4396C25.7829 112.809 28.013 113.732 29.7166 115.34C30.6178 116.192 31.8301 116.715 33.166 116.715C35.951 116.715 38.2095 114.456 38.2095 111.671C38.2095 108.886 35.951 106.628 33.166 106.628C31.8265 106.628 30.6143 107.151 29.7166 108.003C28.0166 109.611 25.7829 110.533 23.4396 110.533H18.0746C15.4557 110.533 12.9923 109.377 11.2604 107.412C10.0835 106.076 8.36232 105.232 6.43967 105.232C2.8877 105.232 0.00724596 108.105 -0.00335693 111.654M29.8897 92.409C28.681 93.6177 28.681 95.5793 29.8897 96.7916C31.0985 98.0003 33.06 98.0003 34.2723 96.7916C35.481 95.5828 35.481 93.6213 34.2723 92.409C33.6679 91.8046 32.8762 91.5007 32.081 91.5007C31.2858 91.5007 30.4941 91.8046 29.8897 92.409ZM47.123 72.1996C45.0943 74.2319 45.0943 77.5223 47.123 79.5546C49.1552 81.5868 52.4456 81.5868 54.4778 79.5546C56.5065 77.5259 56.5065 74.2319 54.4778 72.1996C53.4635 71.1853 52.1311 70.6763 50.8022 70.6763C49.4733 70.6763 48.1408 71.1853 47.1265 72.1996M14.1374 65.9014C12.395 68.8667 12.448 72.7298 14.2505 75.6633C16.2438 78.9078 19.5554 80.4771 22.8388 80.3922C26.9209 80.2862 30.9288 81.4384 33.8163 84.3224L44.4051 94.9113C46.9038 97.4101 48.3034 100.771 48.3988 104.302C48.4519 106.168 49.187 108.02 50.6149 109.445C53.5837 112.413 58.3974 112.413 61.3697 109.445C64.3385 106.476 64.3385 101.662 61.3697 98.6895C59.9454 97.2617 58.0934 96.5265 56.2273 96.4735C52.6965 96.3745 49.3354 94.9749 46.8367 92.4797L36.2338 81.8767C33.4417 79.0845 32.0457 75.2215 32.2966 71.2807C32.4698 68.6016 31.5332 65.8661 29.4833 63.8161C27.5854 61.9182 25.1008 60.971 22.6126 60.971C19.3399 60.971 16.0706 62.6145 14.1409 65.8979M129.444 47.1234C127.412 49.1521 127.412 52.4462 129.444 54.4784C131.473 56.5071 134.766 56.5071 136.799 54.4784C138.827 52.4462 138.827 49.1557 136.799 47.1234C135.784 46.1091 134.452 45.6001 133.123 45.6001C131.794 45.6001 130.462 46.1091 129.447 47.1234M57.1957 46.2893C57.1957 47.9999 58.5812 49.3889 60.2918 49.3889C62.0024 49.3889 63.3913 48.0035 63.3913 46.2893C63.3913 44.5752 62.0024 43.1932 60.2918 43.1932C58.5812 43.1932 57.1957 44.5787 57.1957 46.2893ZM81.5682 46.2893C81.5682 49.1627 83.8973 51.4883 86.7672 51.4883C89.637 51.4883 91.9661 49.1592 91.9661 46.2893C91.9661 43.4194 89.637 41.0903 86.7672 41.0903C83.8973 41.0903 81.5682 43.4194 81.5682 46.2893ZM24.4717 37.0611C23.3159 39.0298 23.3513 41.5886 24.5459 43.5325C25.8677 45.6814 28.066 46.724 30.2432 46.6675C32.9504 46.5968 35.6082 47.3602 37.5203 49.2758L41.3055 53.0611C42.9596 54.7152 43.8891 56.9489 43.9527 59.2886C43.988 60.5257 44.4758 61.7556 45.423 62.6993C47.3916 64.6679 50.5866 64.6679 52.5552 62.6993C54.5238 60.7307 54.5238 57.5356 52.5552 55.567C51.608 54.6198 50.3816 54.132 49.1446 54.1002C46.8049 54.0366 44.5747 53.1071 42.9172 51.453L39.1248 47.6607C37.2729 45.8087 36.3469 43.2463 36.513 40.6344C36.6261 38.8566 36.0076 37.0435 34.6469 35.6828C33.3887 34.4245 31.7417 33.7954 30.0912 33.7954C27.9211 33.7954 25.7511 34.884 24.4717 37.0611ZM112.211 29.89C111.002 31.0987 111.002 33.0603 112.211 34.2725C113.419 35.4813 115.381 35.4813 116.593 34.2725C117.802 33.0638 117.802 31.1022 116.593 29.89C115.989 29.2856 115.197 28.9816 114.402 28.9816C113.607 28.9816 112.815 29.2856 112.211 29.89ZM67.8976 13.3103C64.5683 14.1763 61.8751 16.9437 61.0728 20.2907C60.1893 23.9911 61.4227 27.4477 63.8048 29.7062C66.7666 32.516 68.7847 36.167 68.7847 40.2456V55.2242C68.7847 58.755 67.3957 62.1232 64.9676 64.6891C63.6847 66.0463 62.8965 67.8771 62.8965 69.8917C62.8965 74.0905 66.3001 77.4976 70.5023 77.4976C74.7046 77.4976 78.1081 74.094 78.1081 69.8917C78.1081 67.8736 77.32 66.0463 76.037 64.6891C73.609 62.1232 72.22 58.755 72.22 55.2242V40.2279C72.22 36.2801 73.9624 32.5619 76.9277 29.9536C78.9458 28.1793 80.2181 25.5851 80.2181 22.6834C80.2181 17.3183 75.8674 12.9675 70.5023 12.9675C69.6541 12.9675 68.7811 13.0771 67.8976 13.3068M133.339 14.2505C130.094 16.2439 128.525 19.5591 128.61 22.8389C128.716 26.9211 127.564 30.9291 124.68 33.8131L114.091 44.402C111.592 46.9008 108.231 48.2968 104.7 48.3958C102.834 48.4488 100.982 49.184 99.5578 50.6118C96.589 53.5807 96.589 58.398 99.5578 61.3668C102.527 64.3357 107.34 64.3357 110.313 61.3668C111.741 59.939 112.476 58.0905 112.529 56.2244C112.628 52.6936 114.027 49.3289 116.522 46.8336L127.125 36.2306C129.917 33.4384 133.78 32.0424 137.721 32.2933C140.4 32.463 143.136 31.5299 145.186 29.48C149.579 25.0868 148.886 17.5339 143.104 14.1374C141.655 13.2856 139.994 12.865 138.329 12.865C136.664 12.865 134.844 13.328 133.346 14.2505M97.3029 0C96.748 0 96.1755 0.0742213 95.5959 0.226198C93.3869 0.798762 91.6021 2.63662 91.072 4.85619C90.4853 7.31256 91.3017 9.60282 92.8815 11.1014C94.8466 12.964 96.1861 15.385 96.1861 18.0923V23.4468C96.1861 25.7866 95.2636 28.0238 93.6555 29.7238C92.8038 30.6251 92.2807 31.8374 92.2807 33.1734C92.2807 35.9584 94.5391 38.2169 97.3241 38.2169C100.109 38.2169 102.368 35.9584 102.368 33.1734C102.368 31.8339 101.844 30.6216 100.993 29.7238C99.3846 28.0238 98.4622 25.7901 98.4622 23.4468V18.0817C98.4622 15.4628 99.6179 12.9958 101.583 11.2675C102.919 10.0906 103.764 8.36933 103.764 6.44665C103.764 2.89463 100.887 0.010603 97.3347 0.00353435H97.2994L97.3029 0Z"
                fill="white" />
        </mask>
        <g mask="url(#mask0_339_151)">
            <path d="M149.571 0H0V209H149.571V0Z" fill="url(#paint0_radial_339_151)" />
        </g>
        <mask id="mask1_339_151" style="mask-type:luminance" maskUnits="userSpaceOnUse" x="0" y="0"
            width="240" height="209">
            <path d="M240 0H0V209H240V0Z" fill="white" />
        </mask>
        <g mask="url(#mask1_339_151)">
            <path
                d="M227.718 101.892C227.962 100.824 228.323 100.029 228.793 99.5024C229.263 98.9758 229.867 98.7143 230.602 98.7143C231.337 98.7143 231.896 98.9581 232.387 99.4494C232.878 99.9407 233.242 100.718 233.49 101.786C233.734 102.853 233.875 104.246 233.91 105.96H227.298C227.333 104.316 227.471 102.959 227.718 101.892ZM235.723 122.493C236.826 122.281 237.865 121.953 238.848 121.497L238.113 116.51C237.519 116.789 236.791 116.99 235.936 117.114C235.077 117.238 234.193 117.298 233.285 117.298C231.323 117.298 229.857 116.704 228.878 115.513C227.899 114.322 227.39 112.643 227.354 110.473H239.901C239.936 109.982 239.961 109.501 239.979 109.031C239.996 108.557 240.007 108.077 240.007 107.589C240.007 104.684 239.647 102.192 238.929 100.11C238.212 98.0286 237.18 96.4275 235.833 95.3072C234.486 94.1868 232.797 93.6283 230.768 93.6283C228.74 93.6283 227.022 94.215 225.52 95.3884C224.014 96.5618 222.859 98.2477 222.056 100.453C221.251 102.659 220.851 105.352 220.851 108.536C220.851 111.547 221.289 114.117 222.162 116.252C223.035 118.386 224.322 120.012 226.022 121.133C227.718 122.253 229.758 122.811 232.136 122.811C233.43 122.811 234.628 122.705 235.731 122.497M211.241 122.126V99.7109C211.697 99.5024 212.203 99.361 212.765 99.2904C213.323 99.2197 213.952 99.1843 214.656 99.1843C215.285 99.1843 215.878 99.2373 216.44 99.3398C216.999 99.4459 217.543 99.5837 218.066 99.7604L219.222 94.5119C218.837 94.3741 218.374 94.2504 217.829 94.1444C217.285 94.0383 216.684 93.9535 216.02 93.8828C215.355 93.8121 214.656 93.7768 213.92 93.7768C212.312 93.7768 210.665 93.9535 208.987 94.2999C207.308 94.6498 205.943 95.088 204.89 95.6111V122.119H211.241V122.126ZM187.841 116.404C187.297 115.775 186.904 114.785 186.66 113.438C186.417 112.092 186.293 110.349 186.293 108.215C186.293 106.08 186.417 104.341 186.66 102.991C186.904 101.644 187.297 100.655 187.841 100.026C188.382 99.3964 189.057 99.0818 189.862 99.0818C190.668 99.0818 191.386 99.3964 191.909 100.026C192.435 100.655 192.828 101.644 193.089 102.991C193.351 104.337 193.482 106.08 193.482 108.215C193.482 110.349 193.351 112.092 193.089 113.438C192.828 114.785 192.442 115.775 191.934 116.404C191.425 117.033 190.735 117.347 189.859 117.347C189.053 117.347 188.382 117.033 187.837 116.404M195.425 121.104C196.931 119.966 198.083 118.305 198.889 116.117C199.695 113.93 200.098 111.297 200.098 108.218C200.098 105.14 199.695 102.461 198.889 100.291C198.083 98.1205 196.92 96.4664 195.397 95.3284C193.874 94.1903 192.029 93.6213 189.859 93.6213C187.689 93.6213 185.886 94.1974 184.349 95.3531C182.808 96.5088 181.645 98.1629 180.857 100.315C180.069 102.468 179.677 105.101 179.677 108.215C179.677 111.328 180.08 113.93 180.885 116.114C181.691 118.302 182.854 119.963 184.377 121.101C185.9 122.239 187.728 122.808 189.862 122.808C191.997 122.808 193.92 122.239 195.425 121.101M174.393 122.338C175.757 122.023 176.93 121.567 177.909 120.974L176.178 115.725C175.372 116.181 174.517 116.52 173.605 116.75C172.693 116.976 171.696 117.089 170.615 117.089C168.759 117.089 167.254 116.644 166.101 115.75C164.946 114.859 164.097 113.438 163.557 111.498C163.012 109.554 162.744 107.027 162.744 103.913C162.744 100.8 162.97 98.1735 163.426 96.2508C163.882 94.3246 164.617 92.925 165.631 92.052C166.646 91.179 167.992 90.7408 169.675 90.7408C170.795 90.7408 171.845 90.8821 172.824 91.1614C173.803 91.4406 174.679 91.8258 175.45 92.3171L177.34 86.8565C176.711 86.4713 175.983 86.1461 175.163 85.8846C174.34 85.623 173.467 85.4216 172.537 85.2802C171.611 85.1424 170.657 85.0717 169.675 85.0717C167.367 85.0717 165.345 85.464 163.613 86.2522C161.881 87.0403 160.446 88.2208 159.308 89.7936C158.17 91.3699 157.304 93.3279 156.711 95.6712C156.117 98.0145 155.82 100.764 155.82 103.913C155.82 108.041 156.354 111.509 157.421 114.308C158.488 117.107 160.072 119.224 162.171 120.659C164.271 122.094 166.844 122.811 169.887 122.811C171.53 122.811 173.036 122.652 174.4 122.338"
                fill="#CE2C97" />
            <path
                d="M143.687 122.126V116.612H132.455V85.7467H125.945V122.122H143.687V122.126ZM105.361 90.7372C105.711 90.7019 106.061 90.6666 106.411 90.6312C106.761 90.5959 107.163 90.5782 107.619 90.5782C109.404 90.5782 110.691 90.9705 111.479 91.7587C112.267 92.5468 112.659 93.8333 112.659 95.6182C112.659 96.7386 112.458 97.6822 112.055 98.4527C111.652 99.2232 111.048 99.7816 110.245 100.132C109.44 100.481 108.425 100.658 107.202 100.658H105.364V90.7372H105.361ZM106.488 117.192C106.015 117.156 105.64 117.103 105.361 117.033V105.854H108.036C109.892 105.854 111.316 106.363 112.313 107.377C113.31 108.391 113.808 109.826 113.808 111.682C113.808 112.908 113.571 113.94 113.098 114.778C112.624 115.619 111.942 116.241 111.051 116.64C110.161 117.043 109.047 117.245 107.718 117.245C107.368 117.245 106.958 117.227 106.485 117.192M117.067 119.79C119.41 117.916 120.583 115.283 120.583 111.89C120.583 109.685 120.032 107.798 118.929 106.221C117.826 104.645 116.278 103.528 114.285 102.86C115.964 102.16 117.243 101.146 118.116 99.817C118.989 98.4881 119.427 96.8764 119.427 94.9891C119.427 92.8897 118.954 91.1225 118.01 89.6875C117.067 88.2526 115.681 87.1605 113.864 86.4077C112.044 85.6549 109.786 85.2802 107.093 85.2802C106.287 85.2802 105.456 85.3156 104.601 85.3862C103.742 85.4569 102.834 85.563 101.873 85.7008C100.911 85.8422 99.904 86.033 98.8543 86.2769V121.709C99.7626 121.885 100.699 122.041 101.664 122.182C102.625 122.324 103.562 122.426 104.474 122.497C105.382 122.568 106.259 122.603 107.1 122.603C111.405 122.603 114.727 121.666 117.074 119.793M91.7751 85.7503H85.2649V122.126H91.7751V85.7503Z"
                fill="#009FD7" />
        </g>
    </g>
    <defs>
        <radialGradient id="paint0_radial_339_151" cx="0" cy="0" r="1"
            gradientUnits="userSpaceOnUse"
            gradientTransform="translate(102.347 105.867) rotate(-90) scale(174.526 123.609)">
            <stop stop-color="#C3388D" />
            <stop offset="0.12" stop-color="#C0398E" />
            <stop offset="0.2" stop-color="#B73E91" />
            <stop offset="0.26" stop-color="#A84697" />
            <stop offset="0.33" stop-color="#92519F" />
            <stop offset="0.38" stop-color="#765FA9" />
            <stop offset="0.44" stop-color="#5471B6" />
            <stop offset="0.49" stop-color="#2C86C6" />
            <stop offset="0.54" stop-color="#009ED7" />
            <stop offset="0.56" stop-color="#13A5DA" />
            <stop offset="0.63" stop-color="#50BCE3" />
            <stop offset="0.7" stop-color="#85D0EC" />
            <stop offset="0.77" stop-color="#B1E1F2" />
            <stop offset="0.83" stop-color="#D3EEF8" />
            <stop offset="0.9" stop-color="#EBF7FB" />
            <stop offset="0.95" stop-color="#F9FDFE" />
            <stop offset="1" stop-color="white" />
        </radialGradient>
        <clipPath id="clip0_339_151">
            <rect width="240" height="209" fill="white" />
        </clipPath>
    </defs>
</svg>
